<?xml version="1.0" encoding="UTF-8" standalone="no"?>
<!DOCTYPE svg PUBLIC "-//W3C//DTD SVG 1.1//EN"
 "http://www.w3.org/Graphics/SVG/1.1/DTD/svg11.dtd">
<!-- Generated by graphviz version 2.42.3 (20191010.1750)
 -->
<!-- Title: %3 Pages: 1 -->
<svg width="2654pt" height="404pt"
 viewBox="0.00 0.00 2654.00 404.00" xmlns="http://www.w3.org/2000/svg" xmlns:xlink="http://www.w3.org/1999/xlink">
<g id="graph0" class="graph" transform="scale(1 1) rotate(0) translate(4 400)">
<title>%3</title>
<polygon fill="white" stroke="transparent" points="-4,4 -4,-400 2650,-400 2650,4 -4,4"/>
<!-- 0 -->
<g id="node1" class="node">
<title>0</title>
<ellipse fill="none" stroke="black" cx="1323" cy="-378" rx="27" ry="18"/>
<text text-anchor="middle" x="1323" y="-373.8" font-family="Times,serif" font-size="14.00">t</text>
</g>
<!-- 1 -->
<g id="node2" class="node">
<title>1</title>
<ellipse fill="none" stroke="black" cx="459" cy="-306" rx="27" ry="18"/>
<text text-anchor="middle" x="459" y="-301.8" font-family="Times,serif" font-size="14.00">(</text>
</g>
<!-- 0&#45;&gt;1 -->
<g id="edge1" class="edge">
<title>0&#45;&gt;1</title>
<path fill="none" stroke="black" d="M1296,-376.63C1171.46,-374.73 651.73,-364.45 495,-324 492.82,-323.44 490.62,-322.75 488.43,-321.96"/>
<polygon fill="black" stroke="black" points="489.64,-318.67 479.06,-318.1 486.97,-325.15 489.64,-318.67"/>
</g>
<!-- 2 -->
<g id="node3" class="node">
<title>2</title>
<ellipse fill="none" stroke="black" cx="531" cy="-306" rx="27" ry="18"/>
<text text-anchor="middle" x="531" y="-301.8" font-family="Times,serif" font-size="14.00">n</text>
</g>
<!-- 0&#45;&gt;2 -->
<g id="edge2" class="edge">
<title>0&#45;&gt;2</title>
<path fill="none" stroke="black" d="M1296.19,-374.63C1178.2,-364.2 704.87,-322.37 568.15,-310.28"/>
<polygon fill="black" stroke="black" points="568.07,-306.76 557.8,-309.37 567.45,-313.74 568.07,-306.76"/>
</g>
<!-- 24 -->
<g id="node25" class="node">
<title>24</title>
<ellipse fill="none" stroke="black" cx="1107" cy="-306" rx="27" ry="18"/>
<text text-anchor="middle" x="1107" y="-301.8" font-family="Times,serif" font-size="14.00">l</text>
</g>
<!-- 0&#45;&gt;24 -->
<g id="edge24" class="edge">
<title>0&#45;&gt;24</title>
<path fill="none" stroke="black" d="M1299.06,-369.24C1260.44,-356.73 1184.28,-332.05 1140.36,-317.81"/>
<polygon fill="black" stroke="black" points="1141.31,-314.44 1130.72,-314.69 1139.15,-321.1 1141.31,-314.44"/>
</g>
<!-- 43 -->
<g id="node44" class="node">
<title>43</title>
<ellipse fill="none" stroke="black" cx="1323" cy="-306" rx="27" ry="18"/>
<text text-anchor="middle" x="1323" y="-301.8" font-family="Times,serif" font-size="14.00">t</text>
</g>
<!-- 0&#45;&gt;43 -->
<g id="edge43" class="edge">
<title>0&#45;&gt;43</title>
<path fill="none" stroke="black" d="M1323,-359.7C1323,-351.98 1323,-342.71 1323,-334.11"/>
<polygon fill="black" stroke="black" points="1326.5,-334.1 1323,-324.1 1319.5,-334.1 1326.5,-334.1"/>
</g>
<!-- 51 -->
<g id="node52" class="node">
<title>51</title>
<ellipse fill="none" stroke="black" cx="1503" cy="-306" rx="27" ry="18"/>
<text text-anchor="middle" x="1503" y="-301.8" font-family="Times,serif" font-size="14.00">l</text>
</g>
<!-- 0&#45;&gt;51 -->
<g id="edge51" class="edge">
<title>0&#45;&gt;51</title>
<path fill="none" stroke="black" d="M1345.8,-368.13C1377.36,-355.86 1434.54,-333.62 1470.55,-319.62"/>
<polygon fill="black" stroke="black" points="1472.05,-322.79 1480.1,-315.9 1469.52,-316.27 1472.05,-322.79"/>
</g>
<!-- 56 -->
<g id="node57" class="node">
<title>56</title>
<ellipse fill="none" stroke="black" cx="1899" cy="-306" rx="27" ry="18"/>
<text text-anchor="middle" x="1899" y="-301.8" font-family="Times,serif" font-size="14.00">t</text>
</g>
<!-- 0&#45;&gt;56 -->
<g id="edge56" class="edge">
<title>0&#45;&gt;56</title>
<path fill="none" stroke="black" d="M1349.63,-373.76C1442.98,-362.42 1755.59,-324.43 1862.66,-311.42"/>
<polygon fill="black" stroke="black" points="1863.15,-314.88 1872.66,-310.2 1862.31,-307.93 1863.15,-314.88"/>
</g>
<!-- 90 -->
<g id="node91" class="node">
<title>90</title>
<ellipse fill="none" stroke="black" cx="1971" cy="-306" rx="27" ry="18"/>
<text text-anchor="middle" x="1971" y="-301.8" font-family="Times,serif" font-size="14.00">)</text>
</g>
<!-- 0&#45;&gt;90 -->
<g id="edge90" class="edge">
<title>0&#45;&gt;90</title>
<path fill="none" stroke="black" d="M1349.88,-375.94C1452.85,-371.67 1822,-354.52 1935,-324 1936.95,-323.47 1938.93,-322.84 1940.9,-322.14"/>
<polygon fill="black" stroke="black" points="1942.62,-325.22 1950.54,-318.19 1939.96,-318.75 1942.62,-325.22"/>
</g>
<!-- 3 -->
<g id="node4" class="node">
<title>3</title>
<ellipse fill="none" stroke="black" cx="351" cy="-234" rx="27" ry="18"/>
<text text-anchor="middle" x="351" y="-229.8" font-family="Times,serif" font-size="14.00">[</text>
</g>
<!-- 2&#45;&gt;3 -->
<g id="edge3" class="edge">
<title>2&#45;&gt;3</title>
<path fill="none" stroke="black" d="M509.87,-294.51C505.03,-292.25 499.88,-289.96 495,-288 448.04,-269.16 433.96,-270.84 387,-252 385.17,-251.27 383.3,-250.49 381.43,-249.68"/>
<polygon fill="black" stroke="black" points="382.69,-246.41 372.13,-245.49 379.82,-252.79 382.69,-246.41"/>
</g>
<!-- 4 -->
<g id="node5" class="node">
<title>4</title>
<ellipse fill="none" stroke="black" cx="423" cy="-234" rx="27" ry="18"/>
<text text-anchor="middle" x="423" y="-229.8" font-family="Times,serif" font-size="14.00">txt</text>
</g>
<!-- 2&#45;&gt;4 -->
<g id="edge4" class="edge">
<title>2&#45;&gt;4</title>
<path fill="none" stroke="black" d="M512.19,-292.81C495,-281.67 469.38,-265.06 450.01,-252.5"/>
<polygon fill="black" stroke="black" points="451.89,-249.56 441.6,-247.05 448.08,-255.43 451.89,-249.56"/>
</g>
<!-- 6 -->
<g id="node7" class="node">
<title>6</title>
<ellipse fill="none" stroke="black" cx="495" cy="-234" rx="27" ry="18"/>
<text text-anchor="middle" x="495" y="-229.8" font-family="Times,serif" font-size="14.00">c</text>
</g>
<!-- 2&#45;&gt;6 -->
<g id="edge6" class="edge">
<title>2&#45;&gt;6</title>
<path fill="none" stroke="black" d="M522.65,-288.76C518.29,-280.28 512.85,-269.71 507.96,-260.2"/>
<polygon fill="black" stroke="black" points="510.99,-258.44 503.3,-251.15 504.77,-261.64 510.99,-258.44"/>
</g>
<!-- 23 -->
<g id="node24" class="node">
<title>23</title>
<ellipse fill="none" stroke="black" cx="567" cy="-234" rx="27" ry="18"/>
<text text-anchor="middle" x="567" y="-229.8" font-family="Times,serif" font-size="14.00">]</text>
</g>
<!-- 2&#45;&gt;23 -->
<g id="edge23" class="edge">
<title>2&#45;&gt;23</title>
<path fill="none" stroke="black" d="M539.35,-288.76C543.71,-280.28 549.15,-269.71 554.04,-260.2"/>
<polygon fill="black" stroke="black" points="557.23,-261.64 558.7,-251.15 551.01,-258.44 557.23,-261.64"/>
</g>
<!-- 5 -->
<g id="node6" class="node">
<title>5</title>
<ellipse fill="none" stroke="black" cx="135" cy="-162" rx="27" ry="18"/>
<text text-anchor="middle" x="135" y="-157.8" font-family="Times,serif" font-size="14.00">+</text>
</g>
<!-- 4&#45;&gt;5 -->
<g id="edge5" class="edge">
<title>4&#45;&gt;5</title>
<path fill="none" stroke="black" d="M402.45,-222.11C397.5,-219.82 392.15,-217.61 387,-216 294.11,-186.94 263.89,-209.06 171,-180 169.07,-179.4 167.11,-178.71 165.16,-177.96"/>
<polygon fill="black" stroke="black" points="166.12,-174.57 155.55,-173.89 163.39,-181.02 166.12,-174.57"/>
</g>
<!-- 7 -->
<g id="node8" class="node">
<title>7</title>
<ellipse fill="none" stroke="black" cx="207" cy="-162" rx="27" ry="18"/>
<text text-anchor="middle" x="207" y="-157.8" font-family="Times,serif" font-size="14.00">{</text>
</g>
<!-- 6&#45;&gt;7 -->
<g id="edge7" class="edge">
<title>6&#45;&gt;7</title>
<path fill="none" stroke="black" d="M474.45,-222.11C469.5,-219.82 464.15,-217.61 459,-216 366.11,-186.94 335.89,-209.06 243,-180 241.07,-179.4 239.11,-178.71 237.16,-177.96"/>
<polygon fill="black" stroke="black" points="238.12,-174.57 227.55,-173.89 235.39,-181.02 238.12,-174.57"/>
</g>
<!-- 8 -->
<g id="node9" class="node">
<title>8</title>
<ellipse fill="none" stroke="black" cx="279" cy="-162" rx="27" ry="18"/>
<text text-anchor="middle" x="279" y="-157.8" font-family="Times,serif" font-size="14.00">txt</text>
</g>
<!-- 6&#45;&gt;8 -->
<g id="edge8" class="edge">
<title>6&#45;&gt;8</title>
<path fill="none" stroke="black" d="M473.92,-222.38C469.08,-220.13 463.91,-217.87 459,-216 409.6,-197.19 350.52,-180.94 313.87,-171.55"/>
<polygon fill="black" stroke="black" points="314.71,-168.15 304.15,-169.09 312.99,-174.94 314.71,-168.15"/>
</g>
<!-- 14 -->
<g id="node15" class="node">
<title>14</title>
<ellipse fill="none" stroke="black" cx="459" cy="-162" rx="27" ry="18"/>
<text text-anchor="middle" x="459" y="-157.8" font-family="Times,serif" font-size="14.00">=</text>
</g>
<!-- 6&#45;&gt;14 -->
<g id="edge14" class="edge">
<title>6&#45;&gt;14</title>
<path fill="none" stroke="black" d="M486.65,-216.76C482.29,-208.28 476.85,-197.71 471.96,-188.2"/>
<polygon fill="black" stroke="black" points="474.99,-186.44 467.3,-179.15 468.77,-189.64 474.99,-186.44"/>
</g>
<!-- 15 -->
<g id="node16" class="node">
<title>15</title>
<ellipse fill="none" stroke="black" cx="531" cy="-162" rx="27" ry="18"/>
<text text-anchor="middle" x="531" y="-157.8" font-family="Times,serif" font-size="14.00">txt</text>
</g>
<!-- 6&#45;&gt;15 -->
<g id="edge15" class="edge">
<title>6&#45;&gt;15</title>
<path fill="none" stroke="black" d="M503.35,-216.76C507.71,-208.28 513.15,-197.71 518.04,-188.2"/>
<polygon fill="black" stroke="black" points="521.23,-189.64 522.7,-179.15 515.01,-186.44 521.23,-189.64"/>
</g>
<!-- 22 -->
<g id="node23" class="node">
<title>22</title>
<ellipse fill="none" stroke="black" cx="603" cy="-162" rx="27" ry="18"/>
<text text-anchor="middle" x="603" y="-157.8" font-family="Times,serif" font-size="14.00">}</text>
</g>
<!-- 6&#45;&gt;22 -->
<g id="edge22" class="edge">
<title>6&#45;&gt;22</title>
<path fill="none" stroke="black" d="M513.81,-220.81C531,-209.67 556.62,-193.06 575.99,-180.5"/>
<polygon fill="black" stroke="black" points="577.92,-183.43 584.4,-175.05 574.11,-177.56 577.92,-183.43"/>
</g>
<!-- 9 -->
<g id="node10" class="node">
<title>9</title>
<ellipse fill="none" stroke="black" cx="27" cy="-90" rx="27" ry="18"/>
<text text-anchor="middle" x="27" y="-85.8" font-family="Times,serif" font-size="14.00">s</text>
</g>
<!-- 8&#45;&gt;9 -->
<g id="edge9" class="edge">
<title>8&#45;&gt;9</title>
<path fill="none" stroke="black" d="M258.41,-150.23C253.46,-147.93 248.12,-145.69 243,-144 165.54,-118.39 140.46,-133.61 63,-108 61.08,-107.37 59.13,-106.65 57.18,-105.89"/>
<polygon fill="black" stroke="black" points="58.16,-102.5 47.59,-101.77 55.39,-108.93 58.16,-102.5"/>
</g>
<!-- 10 -->
<g id="node11" class="node">
<title>10</title>
<ellipse fill="none" stroke="black" cx="99" cy="-90" rx="27" ry="18"/>
<text text-anchor="middle" x="99" y="-85.8" font-family="Times,serif" font-size="14.00">h</text>
</g>
<!-- 8&#45;&gt;10 -->
<g id="edge10" class="edge">
<title>8&#45;&gt;10</title>
<path fill="none" stroke="black" d="M257.87,-150.51C253.03,-148.25 247.88,-145.96 243,-144 196.04,-125.16 181.96,-126.84 135,-108 133.17,-107.27 131.3,-106.49 129.43,-105.68"/>
<polygon fill="black" stroke="black" points="130.69,-102.41 120.13,-101.49 127.82,-108.79 130.69,-102.41"/>
</g>
<!-- 11 -->
<g id="node12" class="node">
<title>11</title>
<ellipse fill="none" stroke="black" cx="171" cy="-90" rx="27" ry="18"/>
<text text-anchor="middle" x="171" y="-85.8" font-family="Times,serif" font-size="14.00">a</text>
</g>
<!-- 8&#45;&gt;11 -->
<g id="edge11" class="edge">
<title>8&#45;&gt;11</title>
<path fill="none" stroke="black" d="M260.19,-148.81C243,-137.67 217.38,-121.06 198.01,-108.5"/>
<polygon fill="black" stroke="black" points="199.89,-105.56 189.6,-103.05 196.08,-111.43 199.89,-105.56"/>
</g>
<!-- 12 -->
<g id="node13" class="node">
<title>12</title>
<ellipse fill="none" stroke="black" cx="243" cy="-90" rx="27" ry="18"/>
<text text-anchor="middle" x="243" y="-85.8" font-family="Times,serif" font-size="14.00">p</text>
</g>
<!-- 8&#45;&gt;12 -->
<g id="edge12" class="edge">
<title>8&#45;&gt;12</title>
<path fill="none" stroke="black" d="M270.65,-144.76C266.29,-136.28 260.85,-125.71 255.96,-116.2"/>
<polygon fill="black" stroke="black" points="258.99,-114.44 251.3,-107.15 252.77,-117.64 258.99,-114.44"/>
</g>
<!-- 13 -->
<g id="node14" class="node">
<title>13</title>
<ellipse fill="none" stroke="black" cx="315" cy="-90" rx="27" ry="18"/>
<text text-anchor="middle" x="315" y="-85.8" font-family="Times,serif" font-size="14.00">e</text>
</g>
<!-- 8&#45;&gt;13 -->
<g id="edge13" class="edge">
<title>8&#45;&gt;13</title>
<path fill="none" stroke="black" d="M287.35,-144.76C291.71,-136.28 297.15,-125.71 302.04,-116.2"/>
<polygon fill="black" stroke="black" points="305.23,-117.64 306.7,-107.15 299.01,-114.44 305.23,-117.64"/>
</g>
<!-- 16 -->
<g id="node17" class="node">
<title>16</title>
<ellipse fill="none" stroke="black" cx="387" cy="-90" rx="27" ry="18"/>
<text text-anchor="middle" x="387" y="-85.8" font-family="Times,serif" font-size="14.00">c</text>
</g>
<!-- 15&#45;&gt;16 -->
<g id="edge16" class="edge">
<title>15&#45;&gt;16</title>
<path fill="none" stroke="black" d="M509.75,-150.67C485.4,-138.83 445.28,-119.33 417.57,-105.86"/>
<polygon fill="black" stroke="black" points="418.86,-102.6 408.33,-101.37 415.8,-108.89 418.86,-102.6"/>
</g>
<!-- 17 -->
<g id="node18" class="node">
<title>17</title>
<ellipse fill="none" stroke="black" cx="459" cy="-90" rx="27" ry="18"/>
<text text-anchor="middle" x="459" y="-85.8" font-family="Times,serif" font-size="14.00">i</text>
</g>
<!-- 15&#45;&gt;17 -->
<g id="edge17" class="edge">
<title>15&#45;&gt;17</title>
<path fill="none" stroke="black" d="M516.43,-146.83C506.25,-136.94 492.48,-123.55 480.97,-112.36"/>
<polygon fill="black" stroke="black" points="483.41,-109.85 473.8,-105.38 478.53,-114.87 483.41,-109.85"/>
</g>
<!-- 18 -->
<g id="node19" class="node">
<title>18</title>
<ellipse fill="none" stroke="black" cx="531" cy="-90" rx="27" ry="18"/>
<text text-anchor="middle" x="531" y="-85.8" font-family="Times,serif" font-size="14.00">r</text>
</g>
<!-- 15&#45;&gt;18 -->
<g id="edge18" class="edge">
<title>15&#45;&gt;18</title>
<path fill="none" stroke="black" d="M531,-143.7C531,-135.98 531,-126.71 531,-118.11"/>
<polygon fill="black" stroke="black" points="534.5,-118.1 531,-108.1 527.5,-118.1 534.5,-118.1"/>
</g>
<!-- 19 -->
<g id="node20" class="node">
<title>19</title>
<ellipse fill="none" stroke="black" cx="603" cy="-90" rx="27" ry="18"/>
<text text-anchor="middle" x="603" y="-85.8" font-family="Times,serif" font-size="14.00">c</text>
</g>
<!-- 15&#45;&gt;19 -->
<g id="edge19" class="edge">
<title>15&#45;&gt;19</title>
<path fill="none" stroke="black" d="M545.57,-146.83C555.75,-136.94 569.52,-123.55 581.03,-112.36"/>
<polygon fill="black" stroke="black" points="583.47,-114.87 588.2,-105.38 578.59,-109.85 583.47,-114.87"/>
</g>
<!-- 20 -->
<g id="node21" class="node">
<title>20</title>
<ellipse fill="none" stroke="black" cx="675" cy="-90" rx="27" ry="18"/>
<text text-anchor="middle" x="675" y="-85.8" font-family="Times,serif" font-size="14.00">l</text>
</g>
<!-- 15&#45;&gt;20 -->
<g id="edge20" class="edge">
<title>15&#45;&gt;20</title>
<path fill="none" stroke="black" d="M552.25,-150.67C576.6,-138.83 616.72,-119.33 644.43,-105.86"/>
<polygon fill="black" stroke="black" points="646.2,-108.89 653.67,-101.37 643.14,-102.6 646.2,-108.89"/>
</g>
<!-- 21 -->
<g id="node22" class="node">
<title>21</title>
<ellipse fill="none" stroke="black" cx="747" cy="-90" rx="27" ry="18"/>
<text text-anchor="middle" x="747" y="-85.8" font-family="Times,serif" font-size="14.00">e</text>
</g>
<!-- 15&#45;&gt;21 -->
<g id="edge21" class="edge">
<title>15&#45;&gt;21</title>
<path fill="none" stroke="black" d="M552.03,-150.23C556.87,-147.98 562.05,-145.77 567,-144 629.13,-121.81 648.87,-130.19 711,-108 712.86,-107.34 714.74,-106.61 716.63,-105.84"/>
<polygon fill="black" stroke="black" points="718.2,-108.98 725.97,-101.77 715.41,-102.56 718.2,-108.98"/>
</g>
<!-- 25 -->
<g id="node26" class="node">
<title>25</title>
<ellipse fill="none" stroke="black" cx="963" cy="-234" rx="27" ry="18"/>
<text text-anchor="middle" x="963" y="-229.8" font-family="Times,serif" font-size="14.00">&lt;</text>
</g>
<!-- 24&#45;&gt;25 -->
<g id="edge25" class="edge">
<title>24&#45;&gt;25</title>
<path fill="none" stroke="black" d="M1085.75,-294.67C1061.4,-282.83 1021.28,-263.33 993.57,-249.86"/>
<polygon fill="black" stroke="black" points="994.86,-246.6 984.33,-245.37 991.8,-252.89 994.86,-246.6"/>
</g>
<!-- 26 -->
<g id="node27" class="node">
<title>26</title>
<ellipse fill="none" stroke="black" cx="1035" cy="-234" rx="27" ry="18"/>
<text text-anchor="middle" x="1035" y="-229.8" font-family="Times,serif" font-size="14.00">txt</text>
</g>
<!-- 24&#45;&gt;26 -->
<g id="edge26" class="edge">
<title>24&#45;&gt;26</title>
<path fill="none" stroke="black" d="M1092.43,-290.83C1082.25,-280.94 1068.48,-267.55 1056.97,-256.36"/>
<polygon fill="black" stroke="black" points="1059.41,-253.85 1049.8,-249.38 1054.53,-258.87 1059.41,-253.85"/>
</g>
<!-- 28 -->
<g id="node29" class="node">
<title>28</title>
<ellipse fill="none" stroke="black" cx="1107" cy="-234" rx="27" ry="18"/>
<text text-anchor="middle" x="1107" y="-229.8" font-family="Times,serif" font-size="14.00">c</text>
</g>
<!-- 24&#45;&gt;28 -->
<g id="edge28" class="edge">
<title>24&#45;&gt;28</title>
<path fill="none" stroke="black" d="M1107,-287.7C1107,-279.98 1107,-270.71 1107,-262.11"/>
<polygon fill="black" stroke="black" points="1110.5,-262.1 1107,-252.1 1103.5,-262.1 1110.5,-262.1"/>
</g>
<!-- 42 -->
<g id="node43" class="node">
<title>42</title>
<ellipse fill="none" stroke="black" cx="1179" cy="-234" rx="27" ry="18"/>
<text text-anchor="middle" x="1179" y="-229.8" font-family="Times,serif" font-size="14.00">&gt;</text>
</g>
<!-- 24&#45;&gt;42 -->
<g id="edge42" class="edge">
<title>24&#45;&gt;42</title>
<path fill="none" stroke="black" d="M1121.57,-290.83C1131.75,-280.94 1145.52,-267.55 1157.03,-256.36"/>
<polygon fill="black" stroke="black" points="1159.47,-258.87 1164.2,-249.38 1154.59,-253.85 1159.47,-258.87"/>
</g>
<!-- 27 -->
<g id="node28" class="node">
<title>27</title>
<ellipse fill="none" stroke="black" cx="891" cy="-162" rx="27" ry="18"/>
<text text-anchor="middle" x="891" y="-157.8" font-family="Times,serif" font-size="14.00">0</text>
</g>
<!-- 26&#45;&gt;27 -->
<g id="edge27" class="edge">
<title>26&#45;&gt;27</title>
<path fill="none" stroke="black" d="M1013.75,-222.67C989.4,-210.83 949.28,-191.33 921.57,-177.86"/>
<polygon fill="black" stroke="black" points="922.86,-174.6 912.33,-173.37 919.8,-180.89 922.86,-174.6"/>
</g>
<!-- 29 -->
<g id="node30" class="node">
<title>29</title>
<ellipse fill="none" stroke="black" cx="963" cy="-162" rx="27" ry="18"/>
<text text-anchor="middle" x="963" y="-157.8" font-family="Times,serif" font-size="14.00">{</text>
</g>
<!-- 28&#45;&gt;29 -->
<g id="edge29" class="edge">
<title>28&#45;&gt;29</title>
<path fill="none" stroke="black" d="M1085.75,-222.67C1061.4,-210.83 1021.28,-191.33 993.57,-177.86"/>
<polygon fill="black" stroke="black" points="994.86,-174.6 984.33,-173.37 991.8,-180.89 994.86,-174.6"/>
</g>
<!-- 30 -->
<g id="node31" class="node">
<title>30</title>
<ellipse fill="none" stroke="black" cx="1035" cy="-162" rx="27" ry="18"/>
<text text-anchor="middle" x="1035" y="-157.8" font-family="Times,serif" font-size="14.00">txt</text>
</g>
<!-- 28&#45;&gt;30 -->
<g id="edge30" class="edge">
<title>28&#45;&gt;30</title>
<path fill="none" stroke="black" d="M1092.43,-218.83C1082.25,-208.94 1068.48,-195.55 1056.97,-184.36"/>
<polygon fill="black" stroke="black" points="1059.41,-181.85 1049.8,-177.38 1054.53,-186.87 1059.41,-181.85"/>
</g>
<!-- 36 -->
<g id="node37" class="node">
<title>36</title>
<ellipse fill="none" stroke="black" cx="1107" cy="-162" rx="27" ry="18"/>
<text text-anchor="middle" x="1107" y="-157.8" font-family="Times,serif" font-size="14.00">=</text>
</g>
<!-- 28&#45;&gt;36 -->
<g id="edge36" class="edge">
<title>28&#45;&gt;36</title>
<path fill="none" stroke="black" d="M1107,-215.7C1107,-207.98 1107,-198.71 1107,-190.11"/>
<polygon fill="black" stroke="black" points="1110.5,-190.1 1107,-180.1 1103.5,-190.1 1110.5,-190.1"/>
</g>
<!-- 37 -->
<g id="node38" class="node">
<title>37</title>
<ellipse fill="none" stroke="black" cx="1179" cy="-162" rx="27" ry="18"/>
<text text-anchor="middle" x="1179" y="-157.8" font-family="Times,serif" font-size="14.00">txt</text>
</g>
<!-- 28&#45;&gt;37 -->
<g id="edge37" class="edge">
<title>28&#45;&gt;37</title>
<path fill="none" stroke="black" d="M1121.57,-218.83C1131.75,-208.94 1145.52,-195.55 1157.03,-184.36"/>
<polygon fill="black" stroke="black" points="1159.47,-186.87 1164.2,-177.38 1154.59,-181.85 1159.47,-186.87"/>
</g>
<!-- 41 -->
<g id="node42" class="node">
<title>41</title>
<ellipse fill="none" stroke="black" cx="1251" cy="-162" rx="27" ry="18"/>
<text text-anchor="middle" x="1251" y="-157.8" font-family="Times,serif" font-size="14.00">}</text>
</g>
<!-- 28&#45;&gt;41 -->
<g id="edge41" class="edge">
<title>28&#45;&gt;41</title>
<path fill="none" stroke="black" d="M1128.25,-222.67C1152.6,-210.83 1192.72,-191.33 1220.43,-177.86"/>
<polygon fill="black" stroke="black" points="1222.2,-180.89 1229.67,-173.37 1219.14,-174.6 1222.2,-180.89"/>
</g>
<!-- 31 -->
<g id="node32" class="node">
<title>31</title>
<ellipse fill="none" stroke="black" cx="819" cy="-90" rx="27" ry="18"/>
<text text-anchor="middle" x="819" y="-85.8" font-family="Times,serif" font-size="14.00">c</text>
</g>
<!-- 30&#45;&gt;31 -->
<g id="edge31" class="edge">
<title>30&#45;&gt;31</title>
<path fill="none" stroke="black" d="M1013.97,-150.23C1009.13,-147.98 1003.95,-145.77 999,-144 936.87,-121.81 917.13,-130.19 855,-108 853.14,-107.34 851.26,-106.61 849.37,-105.84"/>
<polygon fill="black" stroke="black" points="850.59,-102.56 840.03,-101.77 847.8,-108.98 850.59,-102.56"/>
</g>
<!-- 32 -->
<g id="node33" class="node">
<title>32</title>
<ellipse fill="none" stroke="black" cx="891" cy="-90" rx="27" ry="18"/>
<text text-anchor="middle" x="891" y="-85.8" font-family="Times,serif" font-size="14.00">o</text>
</g>
<!-- 30&#45;&gt;32 -->
<g id="edge32" class="edge">
<title>30&#45;&gt;32</title>
<path fill="none" stroke="black" d="M1013.75,-150.67C989.4,-138.83 949.28,-119.33 921.57,-105.86"/>
<polygon fill="black" stroke="black" points="922.86,-102.6 912.33,-101.37 919.8,-108.89 922.86,-102.6"/>
</g>
<!-- 33 -->
<g id="node34" class="node">
<title>33</title>
<ellipse fill="none" stroke="black" cx="963" cy="-90" rx="27" ry="18"/>
<text text-anchor="middle" x="963" y="-85.8" font-family="Times,serif" font-size="14.00">l</text>
</g>
<!-- 30&#45;&gt;33 -->
<g id="edge33" class="edge">
<title>30&#45;&gt;33</title>
<path fill="none" stroke="black" d="M1020.43,-146.83C1010.25,-136.94 996.48,-123.55 984.97,-112.36"/>
<polygon fill="black" stroke="black" points="987.41,-109.85 977.8,-105.38 982.53,-114.87 987.41,-109.85"/>
</g>
<!-- 34 -->
<g id="node35" class="node">
<title>34</title>
<ellipse fill="none" stroke="black" cx="1035" cy="-90" rx="27" ry="18"/>
<text text-anchor="middle" x="1035" y="-85.8" font-family="Times,serif" font-size="14.00">o</text>
</g>
<!-- 30&#45;&gt;34 -->
<g id="edge34" class="edge">
<title>30&#45;&gt;34</title>
<path fill="none" stroke="black" d="M1035,-143.7C1035,-135.98 1035,-126.71 1035,-118.11"/>
<polygon fill="black" stroke="black" points="1038.5,-118.1 1035,-108.1 1031.5,-118.1 1038.5,-118.1"/>
</g>
<!-- 35 -->
<g id="node36" class="node">
<title>35</title>
<ellipse fill="none" stroke="black" cx="1107" cy="-90" rx="27" ry="18"/>
<text text-anchor="middle" x="1107" y="-85.8" font-family="Times,serif" font-size="14.00">r</text>
</g>
<!-- 30&#45;&gt;35 -->
<g id="edge35" class="edge">
<title>30&#45;&gt;35</title>
<path fill="none" stroke="black" d="M1049.57,-146.83C1059.75,-136.94 1073.52,-123.55 1085.03,-112.36"/>
<polygon fill="black" stroke="black" points="1087.47,-114.87 1092.2,-105.38 1082.59,-109.85 1087.47,-114.87"/>
</g>
<!-- 38 -->
<g id="node39" class="node">
<title>38</title>
<ellipse fill="none" stroke="black" cx="1179" cy="-90" rx="27" ry="18"/>
<text text-anchor="middle" x="1179" y="-85.8" font-family="Times,serif" font-size="14.00">r</text>
</g>
<!-- 37&#45;&gt;38 -->
<g id="edge38" class="edge">
<title>37&#45;&gt;38</title>
<path fill="none" stroke="black" d="M1179,-143.7C1179,-135.98 1179,-126.71 1179,-118.11"/>
<polygon fill="black" stroke="black" points="1182.5,-118.1 1179,-108.1 1175.5,-118.1 1182.5,-118.1"/>
</g>
<!-- 39 -->
<g id="node40" class="node">
<title>39</title>
<ellipse fill="none" stroke="black" cx="1251" cy="-90" rx="27" ry="18"/>
<text text-anchor="middle" x="1251" y="-85.8" font-family="Times,serif" font-size="14.00">e</text>
</g>
<!-- 37&#45;&gt;39 -->
<g id="edge39" class="edge">
<title>37&#45;&gt;39</title>
<path fill="none" stroke="black" d="M1193.57,-146.83C1203.75,-136.94 1217.52,-123.55 1229.03,-112.36"/>
<polygon fill="black" stroke="black" points="1231.47,-114.87 1236.2,-105.38 1226.59,-109.85 1231.47,-114.87"/>
</g>
<!-- 40 -->
<g id="node41" class="node">
<title>40</title>
<ellipse fill="none" stroke="black" cx="1323" cy="-90" rx="27" ry="18"/>
<text text-anchor="middle" x="1323" y="-85.8" font-family="Times,serif" font-size="14.00">d</text>
</g>
<!-- 37&#45;&gt;40 -->
<g id="edge40" class="edge">
<title>37&#45;&gt;40</title>
<path fill="none" stroke="black" d="M1200.25,-150.67C1224.6,-138.83 1264.72,-119.33 1292.43,-105.86"/>
<polygon fill="black" stroke="black" points="1294.2,-108.89 1301.67,-101.37 1291.14,-102.6 1294.2,-108.89"/>
</g>
<!-- 44 -->
<g id="node45" class="node">
<title>44</title>
<ellipse fill="none" stroke="black" cx="1251" cy="-234" rx="27" ry="18"/>
<text text-anchor="middle" x="1251" y="-229.8" font-family="Times,serif" font-size="14.00">(</text>
</g>
<!-- 43&#45;&gt;44 -->
<g id="edge44" class="edge">
<title>43&#45;&gt;44</title>
<path fill="none" stroke="black" d="M1308.43,-290.83C1298.25,-280.94 1284.48,-267.55 1272.97,-256.36"/>
<polygon fill="black" stroke="black" points="1275.41,-253.85 1265.8,-249.38 1270.53,-258.87 1275.41,-253.85"/>
</g>
<!-- 45 -->
<g id="node46" class="node">
<title>45</title>
<ellipse fill="none" stroke="black" cx="1323" cy="-234" rx="27" ry="18"/>
<text text-anchor="middle" x="1323" y="-229.8" font-family="Times,serif" font-size="14.00">n</text>
</g>
<!-- 43&#45;&gt;45 -->
<g id="edge45" class="edge">
<title>43&#45;&gt;45</title>
<path fill="none" stroke="black" d="M1323,-287.7C1323,-279.98 1323,-270.71 1323,-262.11"/>
<polygon fill="black" stroke="black" points="1326.5,-262.1 1323,-252.1 1319.5,-262.1 1326.5,-262.1"/>
</g>
<!-- 50 -->
<g id="node51" class="node">
<title>50</title>
<ellipse fill="none" stroke="black" cx="1395" cy="-234" rx="27" ry="18"/>
<text text-anchor="middle" x="1395" y="-229.8" font-family="Times,serif" font-size="14.00">)</text>
</g>
<!-- 43&#45;&gt;50 -->
<g id="edge50" class="edge">
<title>43&#45;&gt;50</title>
<path fill="none" stroke="black" d="M1337.57,-290.83C1347.75,-280.94 1361.52,-267.55 1373.03,-256.36"/>
<polygon fill="black" stroke="black" points="1375.47,-258.87 1380.2,-249.38 1370.59,-253.85 1375.47,-258.87"/>
</g>
<!-- 46 -->
<g id="node47" class="node">
<title>46</title>
<ellipse fill="none" stroke="black" cx="1323" cy="-162" rx="27" ry="18"/>
<text text-anchor="middle" x="1323" y="-157.8" font-family="Times,serif" font-size="14.00">[</text>
</g>
<!-- 45&#45;&gt;46 -->
<g id="edge46" class="edge">
<title>45&#45;&gt;46</title>
<path fill="none" stroke="black" d="M1323,-215.7C1323,-207.98 1323,-198.71 1323,-190.11"/>
<polygon fill="black" stroke="black" points="1326.5,-190.1 1323,-180.1 1319.5,-190.1 1326.5,-190.1"/>
</g>
<!-- 47 -->
<g id="node48" class="node">
<title>47</title>
<ellipse fill="none" stroke="black" cx="1395" cy="-162" rx="27" ry="18"/>
<text text-anchor="middle" x="1395" y="-157.8" font-family="Times,serif" font-size="14.00">txt</text>
</g>
<!-- 45&#45;&gt;47 -->
<g id="edge47" class="edge">
<title>45&#45;&gt;47</title>
<path fill="none" stroke="black" d="M1337.57,-218.83C1347.75,-208.94 1361.52,-195.55 1373.03,-184.36"/>
<polygon fill="black" stroke="black" points="1375.47,-186.87 1380.2,-177.38 1370.59,-181.85 1375.47,-186.87"/>
</g>
<!-- 49 -->
<g id="node50" class="node">
<title>49</title>
<ellipse fill="none" stroke="black" cx="1467" cy="-162" rx="27" ry="18"/>
<text text-anchor="middle" x="1467" y="-157.8" font-family="Times,serif" font-size="14.00">]</text>
</g>
<!-- 45&#45;&gt;49 -->
<g id="edge49" class="edge">
<title>45&#45;&gt;49</title>
<path fill="none" stroke="black" d="M1344.25,-222.67C1368.6,-210.83 1408.72,-191.33 1436.43,-177.86"/>
<polygon fill="black" stroke="black" points="1438.2,-180.89 1445.67,-173.37 1435.14,-174.6 1438.2,-180.89"/>
</g>
<!-- 48 -->
<g id="node49" class="node">
<title>48</title>
<ellipse fill="none" stroke="black" cx="1395" cy="-90" rx="27" ry="18"/>
<text text-anchor="middle" x="1395" y="-85.8" font-family="Times,serif" font-size="14.00">A</text>
</g>
<!-- 47&#45;&gt;48 -->
<g id="edge48" class="edge">
<title>47&#45;&gt;48</title>
<path fill="none" stroke="black" d="M1395,-143.7C1395,-135.98 1395,-126.71 1395,-118.11"/>
<polygon fill="black" stroke="black" points="1398.5,-118.1 1395,-108.1 1391.5,-118.1 1398.5,-118.1"/>
</g>
<!-- 52 -->
<g id="node53" class="node">
<title>52</title>
<ellipse fill="none" stroke="black" cx="1467" cy="-234" rx="27" ry="18"/>
<text text-anchor="middle" x="1467" y="-229.8" font-family="Times,serif" font-size="14.00">&lt;</text>
</g>
<!-- 51&#45;&gt;52 -->
<g id="edge52" class="edge">
<title>51&#45;&gt;52</title>
<path fill="none" stroke="black" d="M1494.65,-288.76C1490.29,-280.28 1484.85,-269.71 1479.96,-260.2"/>
<polygon fill="black" stroke="black" points="1482.99,-258.44 1475.3,-251.15 1476.77,-261.64 1482.99,-258.44"/>
</g>
<!-- 53 -->
<g id="node54" class="node">
<title>53</title>
<ellipse fill="none" stroke="black" cx="1539" cy="-234" rx="27" ry="18"/>
<text text-anchor="middle" x="1539" y="-229.8" font-family="Times,serif" font-size="14.00">txt</text>
</g>
<!-- 51&#45;&gt;53 -->
<g id="edge53" class="edge">
<title>51&#45;&gt;53</title>
<path fill="none" stroke="black" d="M1511.35,-288.76C1515.71,-280.28 1521.15,-269.71 1526.04,-260.2"/>
<polygon fill="black" stroke="black" points="1529.23,-261.64 1530.7,-251.15 1523.01,-258.44 1529.23,-261.64"/>
</g>
<!-- 55 -->
<g id="node56" class="node">
<title>55</title>
<ellipse fill="none" stroke="black" cx="1611" cy="-234" rx="27" ry="18"/>
<text text-anchor="middle" x="1611" y="-229.8" font-family="Times,serif" font-size="14.00">&gt;</text>
</g>
<!-- 51&#45;&gt;55 -->
<g id="edge55" class="edge">
<title>51&#45;&gt;55</title>
<path fill="none" stroke="black" d="M1521.81,-292.81C1539,-281.67 1564.62,-265.06 1583.99,-252.5"/>
<polygon fill="black" stroke="black" points="1585.92,-255.43 1592.4,-247.05 1582.11,-249.56 1585.92,-255.43"/>
</g>
<!-- 54 -->
<g id="node55" class="node">
<title>54</title>
<ellipse fill="none" stroke="black" cx="1539" cy="-162" rx="27" ry="18"/>
<text text-anchor="middle" x="1539" y="-157.8" font-family="Times,serif" font-size="14.00">1</text>
</g>
<!-- 53&#45;&gt;54 -->
<g id="edge54" class="edge">
<title>53&#45;&gt;54</title>
<path fill="none" stroke="black" d="M1539,-215.7C1539,-207.98 1539,-198.71 1539,-190.11"/>
<polygon fill="black" stroke="black" points="1542.5,-190.1 1539,-180.1 1535.5,-190.1 1542.5,-190.1"/>
</g>
<!-- 57 -->
<g id="node58" class="node">
<title>57</title>
<ellipse fill="none" stroke="black" cx="1683" cy="-234" rx="27" ry="18"/>
<text text-anchor="middle" x="1683" y="-229.8" font-family="Times,serif" font-size="14.00">(</text>
</g>
<!-- 56&#45;&gt;57 -->
<g id="edge57" class="edge">
<title>56&#45;&gt;57</title>
<path fill="none" stroke="black" d="M1873.85,-298.91C1838.68,-290.1 1773.04,-272.57 1719,-252 1717.16,-251.3 1715.28,-250.54 1713.4,-249.75"/>
<polygon fill="black" stroke="black" points="1714.64,-246.48 1704.08,-245.62 1711.81,-252.88 1714.64,-246.48"/>
</g>
<!-- 58 -->
<g id="node59" class="node">
<title>58</title>
<ellipse fill="none" stroke="black" cx="1755" cy="-234" rx="27" ry="18"/>
<text text-anchor="middle" x="1755" y="-229.8" font-family="Times,serif" font-size="14.00">n</text>
</g>
<!-- 56&#45;&gt;58 -->
<g id="edge58" class="edge">
<title>56&#45;&gt;58</title>
<path fill="none" stroke="black" d="M1877.75,-294.67C1853.4,-282.83 1813.28,-263.33 1785.57,-249.86"/>
<polygon fill="black" stroke="black" points="1786.86,-246.6 1776.33,-245.37 1783.8,-252.89 1786.86,-246.6"/>
</g>
<!-- 63 -->
<g id="node64" class="node">
<title>63</title>
<ellipse fill="none" stroke="black" cx="1899" cy="-234" rx="27" ry="18"/>
<text text-anchor="middle" x="1899" y="-229.8" font-family="Times,serif" font-size="14.00">l</text>
</g>
<!-- 56&#45;&gt;63 -->
<g id="edge63" class="edge">
<title>56&#45;&gt;63</title>
<path fill="none" stroke="black" d="M1899,-287.7C1899,-279.98 1899,-270.71 1899,-262.11"/>
<polygon fill="black" stroke="black" points="1902.5,-262.1 1899,-252.1 1895.5,-262.1 1902.5,-262.1"/>
</g>
<!-- 68 -->
<g id="node69" class="node">
<title>68</title>
<ellipse fill="none" stroke="black" cx="2079" cy="-234" rx="27" ry="18"/>
<text text-anchor="middle" x="2079" y="-229.8" font-family="Times,serif" font-size="14.00">t</text>
</g>
<!-- 56&#45;&gt;68 -->
<g id="edge68" class="edge">
<title>56&#45;&gt;68</title>
<path fill="none" stroke="black" d="M1920.18,-294.62C1925.01,-292.35 1930.16,-290.03 1935,-288 1972.36,-272.34 2016.15,-256.58 2045.54,-246.37"/>
<polygon fill="black" stroke="black" points="2047,-249.57 2055.31,-243 2044.71,-242.95 2047,-249.57"/>
</g>
<!-- 76 -->
<g id="node77" class="node">
<title>76</title>
<ellipse fill="none" stroke="black" cx="2295" cy="-234" rx="27" ry="18"/>
<text text-anchor="middle" x="2295" y="-229.8" font-family="Times,serif" font-size="14.00">l</text>
</g>
<!-- 56&#45;&gt;76 -->
<g id="edge76" class="edge">
<title>56&#45;&gt;76</title>
<path fill="none" stroke="black" d="M1919.53,-294.04C1924.48,-291.75 1929.84,-289.56 1935,-288 1995.19,-269.8 2179.44,-247.86 2258.43,-239"/>
<polygon fill="black" stroke="black" points="2258.86,-242.47 2268.41,-237.89 2258.08,-235.51 2258.86,-242.47"/>
</g>
<!-- 81 -->
<g id="node82" class="node">
<title>81</title>
<ellipse fill="none" stroke="black" cx="2475" cy="-234" rx="27" ry="18"/>
<text text-anchor="middle" x="2475" y="-229.8" font-family="Times,serif" font-size="14.00">t</text>
</g>
<!-- 56&#45;&gt;81 -->
<g id="edge81" class="edge">
<title>56&#45;&gt;81</title>
<path fill="none" stroke="black" d="M1919.47,-293.83C1924.42,-291.55 1929.8,-289.42 1935,-288 2105.51,-241.56 2155.23,-270.36 2331,-252 2367.68,-248.17 2409.54,-243.15 2438.64,-239.57"/>
<polygon fill="black" stroke="black" points="2439.25,-243.02 2448.75,-238.31 2438.39,-236.07 2439.25,-243.02"/>
</g>
<!-- 89 -->
<g id="node90" class="node">
<title>89</title>
<ellipse fill="none" stroke="black" cx="2547" cy="-234" rx="27" ry="18"/>
<text text-anchor="middle" x="2547" y="-229.8" font-family="Times,serif" font-size="14.00">)</text>
</g>
<!-- 56&#45;&gt;89 -->
<g id="edge89" class="edge">
<title>56&#45;&gt;89</title>
<path fill="none" stroke="black" d="M1919.06,-293.9C1924.12,-291.55 1929.64,-289.38 1935,-288 2183.41,-224.09 2262.59,-315.91 2511,-252 2513.18,-251.44 2515.38,-250.75 2517.57,-249.97"/>
<polygon fill="black" stroke="black" points="2519.03,-253.15 2526.94,-246.1 2516.36,-246.68 2519.03,-253.15"/>
</g>
<!-- 59 -->
<g id="node60" class="node">
<title>59</title>
<ellipse fill="none" stroke="black" cx="1611" cy="-162" rx="27" ry="18"/>
<text text-anchor="middle" x="1611" y="-157.8" font-family="Times,serif" font-size="14.00">[</text>
</g>
<!-- 58&#45;&gt;59 -->
<g id="edge59" class="edge">
<title>58&#45;&gt;59</title>
<path fill="none" stroke="black" d="M1733.75,-222.67C1709.4,-210.83 1669.28,-191.33 1641.57,-177.86"/>
<polygon fill="black" stroke="black" points="1642.86,-174.6 1632.33,-173.37 1639.8,-180.89 1642.86,-174.6"/>
</g>
<!-- 60 -->
<g id="node61" class="node">
<title>60</title>
<ellipse fill="none" stroke="black" cx="1683" cy="-162" rx="27" ry="18"/>
<text text-anchor="middle" x="1683" y="-157.8" font-family="Times,serif" font-size="14.00">txt</text>
</g>
<!-- 58&#45;&gt;60 -->
<g id="edge60" class="edge">
<title>58&#45;&gt;60</title>
<path fill="none" stroke="black" d="M1740.43,-218.83C1730.25,-208.94 1716.48,-195.55 1704.97,-184.36"/>
<polygon fill="black" stroke="black" points="1707.41,-181.85 1697.8,-177.38 1702.53,-186.87 1707.41,-181.85"/>
</g>
<!-- 62 -->
<g id="node63" class="node">
<title>62</title>
<ellipse fill="none" stroke="black" cx="1755" cy="-162" rx="27" ry="18"/>
<text text-anchor="middle" x="1755" y="-157.8" font-family="Times,serif" font-size="14.00">]</text>
</g>
<!-- 58&#45;&gt;62 -->
<g id="edge62" class="edge">
<title>58&#45;&gt;62</title>
<path fill="none" stroke="black" d="M1755,-215.7C1755,-207.98 1755,-198.71 1755,-190.11"/>
<polygon fill="black" stroke="black" points="1758.5,-190.1 1755,-180.1 1751.5,-190.1 1758.5,-190.1"/>
</g>
<!-- 61 -->
<g id="node62" class="node">
<title>61</title>
<ellipse fill="none" stroke="black" cx="1683" cy="-90" rx="27" ry="18"/>
<text text-anchor="middle" x="1683" y="-85.8" font-family="Times,serif" font-size="14.00">*</text>
</g>
<!-- 60&#45;&gt;61 -->
<g id="edge61" class="edge">
<title>60&#45;&gt;61</title>
<path fill="none" stroke="black" d="M1683,-143.7C1683,-135.98 1683,-126.71 1683,-118.11"/>
<polygon fill="black" stroke="black" points="1686.5,-118.1 1683,-108.1 1679.5,-118.1 1686.5,-118.1"/>
</g>
<!-- 64 -->
<g id="node65" class="node">
<title>64</title>
<ellipse fill="none" stroke="black" cx="1827" cy="-162" rx="27" ry="18"/>
<text text-anchor="middle" x="1827" y="-157.8" font-family="Times,serif" font-size="14.00">&lt;</text>
</g>
<!-- 63&#45;&gt;64 -->
<g id="edge64" class="edge">
<title>63&#45;&gt;64</title>
<path fill="none" stroke="black" d="M1884.43,-218.83C1874.25,-208.94 1860.48,-195.55 1848.97,-184.36"/>
<polygon fill="black" stroke="black" points="1851.41,-181.85 1841.8,-177.38 1846.53,-186.87 1851.41,-181.85"/>
</g>
<!-- 65 -->
<g id="node66" class="node">
<title>65</title>
<ellipse fill="none" stroke="black" cx="1899" cy="-162" rx="27" ry="18"/>
<text text-anchor="middle" x="1899" y="-157.8" font-family="Times,serif" font-size="14.00">txt</text>
</g>
<!-- 63&#45;&gt;65 -->
<g id="edge65" class="edge">
<title>63&#45;&gt;65</title>
<path fill="none" stroke="black" d="M1899,-215.7C1899,-207.98 1899,-198.71 1899,-190.11"/>
<polygon fill="black" stroke="black" points="1902.5,-190.1 1899,-180.1 1895.5,-190.1 1902.5,-190.1"/>
</g>
<!-- 67 -->
<g id="node68" class="node">
<title>67</title>
<ellipse fill="none" stroke="black" cx="1971" cy="-162" rx="27" ry="18"/>
<text text-anchor="middle" x="1971" y="-157.8" font-family="Times,serif" font-size="14.00">&gt;</text>
</g>
<!-- 63&#45;&gt;67 -->
<g id="edge67" class="edge">
<title>63&#45;&gt;67</title>
<path fill="none" stroke="black" d="M1913.57,-218.83C1923.75,-208.94 1937.52,-195.55 1949.03,-184.36"/>
<polygon fill="black" stroke="black" points="1951.47,-186.87 1956.2,-177.38 1946.59,-181.85 1951.47,-186.87"/>
</g>
<!-- 66 -->
<g id="node67" class="node">
<title>66</title>
<ellipse fill="none" stroke="black" cx="1899" cy="-90" rx="27" ry="18"/>
<text text-anchor="middle" x="1899" y="-85.8" font-family="Times,serif" font-size="14.00">0</text>
</g>
<!-- 65&#45;&gt;66 -->
<g id="edge66" class="edge">
<title>65&#45;&gt;66</title>
<path fill="none" stroke="black" d="M1899,-143.7C1899,-135.98 1899,-126.71 1899,-118.11"/>
<polygon fill="black" stroke="black" points="1902.5,-118.1 1899,-108.1 1895.5,-118.1 1902.5,-118.1"/>
</g>
<!-- 69 -->
<g id="node70" class="node">
<title>69</title>
<ellipse fill="none" stroke="black" cx="2043" cy="-162" rx="27" ry="18"/>
<text text-anchor="middle" x="2043" y="-157.8" font-family="Times,serif" font-size="14.00">(</text>
</g>
<!-- 68&#45;&gt;69 -->
<g id="edge69" class="edge">
<title>68&#45;&gt;69</title>
<path fill="none" stroke="black" d="M2070.65,-216.76C2066.29,-208.28 2060.85,-197.71 2055.96,-188.2"/>
<polygon fill="black" stroke="black" points="2058.99,-186.44 2051.3,-179.15 2052.77,-189.64 2058.99,-186.44"/>
</g>
<!-- 70 -->
<g id="node71" class="node">
<title>70</title>
<ellipse fill="none" stroke="black" cx="2115" cy="-162" rx="27" ry="18"/>
<text text-anchor="middle" x="2115" y="-157.8" font-family="Times,serif" font-size="14.00">n</text>
</g>
<!-- 68&#45;&gt;70 -->
<g id="edge70" class="edge">
<title>68&#45;&gt;70</title>
<path fill="none" stroke="black" d="M2087.35,-216.76C2091.71,-208.28 2097.15,-197.71 2102.04,-188.2"/>
<polygon fill="black" stroke="black" points="2105.23,-189.64 2106.7,-179.15 2099.01,-186.44 2105.23,-189.64"/>
</g>
<!-- 75 -->
<g id="node76" class="node">
<title>75</title>
<ellipse fill="none" stroke="black" cx="2187" cy="-162" rx="27" ry="18"/>
<text text-anchor="middle" x="2187" y="-157.8" font-family="Times,serif" font-size="14.00">)</text>
</g>
<!-- 68&#45;&gt;75 -->
<g id="edge75" class="edge">
<title>68&#45;&gt;75</title>
<path fill="none" stroke="black" d="M2097.81,-220.81C2115,-209.67 2140.62,-193.06 2159.99,-180.5"/>
<polygon fill="black" stroke="black" points="2161.92,-183.43 2168.4,-175.05 2158.11,-177.56 2161.92,-183.43"/>
</g>
<!-- 71 -->
<g id="node72" class="node">
<title>71</title>
<ellipse fill="none" stroke="black" cx="2043" cy="-90" rx="27" ry="18"/>
<text text-anchor="middle" x="2043" y="-85.8" font-family="Times,serif" font-size="14.00">[</text>
</g>
<!-- 70&#45;&gt;71 -->
<g id="edge71" class="edge">
<title>70&#45;&gt;71</title>
<path fill="none" stroke="black" d="M2100.43,-146.83C2090.25,-136.94 2076.48,-123.55 2064.97,-112.36"/>
<polygon fill="black" stroke="black" points="2067.41,-109.85 2057.8,-105.38 2062.53,-114.87 2067.41,-109.85"/>
</g>
<!-- 72 -->
<g id="node73" class="node">
<title>72</title>
<ellipse fill="none" stroke="black" cx="2115" cy="-90" rx="27" ry="18"/>
<text text-anchor="middle" x="2115" y="-85.8" font-family="Times,serif" font-size="14.00">txt</text>
</g>
<!-- 70&#45;&gt;72 -->
<g id="edge72" class="edge">
<title>70&#45;&gt;72</title>
<path fill="none" stroke="black" d="M2115,-143.7C2115,-135.98 2115,-126.71 2115,-118.11"/>
<polygon fill="black" stroke="black" points="2118.5,-118.1 2115,-108.1 2111.5,-118.1 2118.5,-118.1"/>
</g>
<!-- 74 -->
<g id="node75" class="node">
<title>74</title>
<ellipse fill="none" stroke="black" cx="2187" cy="-90" rx="27" ry="18"/>
<text text-anchor="middle" x="2187" y="-85.8" font-family="Times,serif" font-size="14.00">]</text>
</g>
<!-- 70&#45;&gt;74 -->
<g id="edge74" class="edge">
<title>70&#45;&gt;74</title>
<path fill="none" stroke="black" d="M2129.57,-146.83C2139.75,-136.94 2153.52,-123.55 2165.03,-112.36"/>
<polygon fill="black" stroke="black" points="2167.47,-114.87 2172.2,-105.38 2162.59,-109.85 2167.47,-114.87"/>
</g>
<!-- 73 -->
<g id="node74" class="node">
<title>73</title>
<ellipse fill="none" stroke="black" cx="2115" cy="-18" rx="27" ry="18"/>
<text text-anchor="middle" x="2115" y="-13.8" font-family="Times,serif" font-size="14.00">B</text>
</g>
<!-- 72&#45;&gt;73 -->
<g id="edge73" class="edge">
<title>72&#45;&gt;73</title>
<path fill="none" stroke="black" d="M2115,-71.7C2115,-63.98 2115,-54.71 2115,-46.11"/>
<polygon fill="black" stroke="black" points="2118.5,-46.1 2115,-36.1 2111.5,-46.1 2118.5,-46.1"/>
</g>
<!-- 77 -->
<g id="node78" class="node">
<title>77</title>
<ellipse fill="none" stroke="black" cx="2259" cy="-162" rx="27" ry="18"/>
<text text-anchor="middle" x="2259" y="-157.8" font-family="Times,serif" font-size="14.00">&lt;</text>
</g>
<!-- 76&#45;&gt;77 -->
<g id="edge77" class="edge">
<title>76&#45;&gt;77</title>
<path fill="none" stroke="black" d="M2286.65,-216.76C2282.29,-208.28 2276.85,-197.71 2271.96,-188.2"/>
<polygon fill="black" stroke="black" points="2274.99,-186.44 2267.3,-179.15 2268.77,-189.64 2274.99,-186.44"/>
</g>
<!-- 78 -->
<g id="node79" class="node">
<title>78</title>
<ellipse fill="none" stroke="black" cx="2331" cy="-162" rx="27" ry="18"/>
<text text-anchor="middle" x="2331" y="-157.8" font-family="Times,serif" font-size="14.00">txt</text>
</g>
<!-- 76&#45;&gt;78 -->
<g id="edge78" class="edge">
<title>76&#45;&gt;78</title>
<path fill="none" stroke="black" d="M2303.35,-216.76C2307.71,-208.28 2313.15,-197.71 2318.04,-188.2"/>
<polygon fill="black" stroke="black" points="2321.23,-189.64 2322.7,-179.15 2315.01,-186.44 2321.23,-189.64"/>
</g>
<!-- 80 -->
<g id="node81" class="node">
<title>80</title>
<ellipse fill="none" stroke="black" cx="2403" cy="-162" rx="27" ry="18"/>
<text text-anchor="middle" x="2403" y="-157.8" font-family="Times,serif" font-size="14.00">&gt;</text>
</g>
<!-- 76&#45;&gt;80 -->
<g id="edge80" class="edge">
<title>76&#45;&gt;80</title>
<path fill="none" stroke="black" d="M2313.81,-220.81C2331,-209.67 2356.62,-193.06 2375.99,-180.5"/>
<polygon fill="black" stroke="black" points="2377.92,-183.43 2384.4,-175.05 2374.11,-177.56 2377.92,-183.43"/>
</g>
<!-- 79 -->
<g id="node80" class="node">
<title>79</title>
<ellipse fill="none" stroke="black" cx="2331" cy="-90" rx="27" ry="18"/>
<text text-anchor="middle" x="2331" y="-85.8" font-family="Times,serif" font-size="14.00">1</text>
</g>
<!-- 78&#45;&gt;79 -->
<g id="edge79" class="edge">
<title>78&#45;&gt;79</title>
<path fill="none" stroke="black" d="M2331,-143.7C2331,-135.98 2331,-126.71 2331,-118.11"/>
<polygon fill="black" stroke="black" points="2334.5,-118.1 2331,-108.1 2327.5,-118.1 2334.5,-118.1"/>
</g>
<!-- 82 -->
<g id="node83" class="node">
<title>82</title>
<ellipse fill="none" stroke="black" cx="2475" cy="-162" rx="27" ry="18"/>
<text text-anchor="middle" x="2475" y="-157.8" font-family="Times,serif" font-size="14.00">(</text>
</g>
<!-- 81&#45;&gt;82 -->
<g id="edge82" class="edge">
<title>81&#45;&gt;82</title>
<path fill="none" stroke="black" d="M2475,-215.7C2475,-207.98 2475,-198.71 2475,-190.11"/>
<polygon fill="black" stroke="black" points="2478.5,-190.1 2475,-180.1 2471.5,-190.1 2478.5,-190.1"/>
</g>
<!-- 83 -->
<g id="node84" class="node">
<title>83</title>
<ellipse fill="none" stroke="black" cx="2547" cy="-162" rx="27" ry="18"/>
<text text-anchor="middle" x="2547" y="-157.8" font-family="Times,serif" font-size="14.00">n</text>
</g>
<!-- 81&#45;&gt;83 -->
<g id="edge83" class="edge">
<title>81&#45;&gt;83</title>
<path fill="none" stroke="black" d="M2489.57,-218.83C2499.75,-208.94 2513.52,-195.55 2525.03,-184.36"/>
<polygon fill="black" stroke="black" points="2527.47,-186.87 2532.2,-177.38 2522.59,-181.85 2527.47,-186.87"/>
</g>
<!-- 88 -->
<g id="node89" class="node">
<title>88</title>
<ellipse fill="none" stroke="black" cx="2619" cy="-162" rx="27" ry="18"/>
<text text-anchor="middle" x="2619" y="-157.8" font-family="Times,serif" font-size="14.00">)</text>
</g>
<!-- 81&#45;&gt;88 -->
<g id="edge88" class="edge">
<title>81&#45;&gt;88</title>
<path fill="none" stroke="black" d="M2496.25,-222.67C2520.6,-210.83 2560.72,-191.33 2588.43,-177.86"/>
<polygon fill="black" stroke="black" points="2590.2,-180.89 2597.67,-173.37 2587.14,-174.6 2590.2,-180.89"/>
</g>
<!-- 84 -->
<g id="node85" class="node">
<title>84</title>
<ellipse fill="none" stroke="black" cx="2475" cy="-90" rx="27" ry="18"/>
<text text-anchor="middle" x="2475" y="-85.8" font-family="Times,serif" font-size="14.00">[</text>
</g>
<!-- 83&#45;&gt;84 -->
<g id="edge84" class="edge">
<title>83&#45;&gt;84</title>
<path fill="none" stroke="black" d="M2532.43,-146.83C2522.25,-136.94 2508.48,-123.55 2496.97,-112.36"/>
<polygon fill="black" stroke="black" points="2499.41,-109.85 2489.8,-105.38 2494.53,-114.87 2499.41,-109.85"/>
</g>
<!-- 85 -->
<g id="node86" class="node">
<title>85</title>
<ellipse fill="none" stroke="black" cx="2547" cy="-90" rx="27" ry="18"/>
<text text-anchor="middle" x="2547" y="-85.8" font-family="Times,serif" font-size="14.00">txt</text>
</g>
<!-- 83&#45;&gt;85 -->
<g id="edge85" class="edge">
<title>83&#45;&gt;85</title>
<path fill="none" stroke="black" d="M2547,-143.7C2547,-135.98 2547,-126.71 2547,-118.11"/>
<polygon fill="black" stroke="black" points="2550.5,-118.1 2547,-108.1 2543.5,-118.1 2550.5,-118.1"/>
</g>
<!-- 87 -->
<g id="node88" class="node">
<title>87</title>
<ellipse fill="none" stroke="black" cx="2619" cy="-90" rx="27" ry="18"/>
<text text-anchor="middle" x="2619" y="-85.8" font-family="Times,serif" font-size="14.00">]</text>
</g>
<!-- 83&#45;&gt;87 -->
<g id="edge87" class="edge">
<title>83&#45;&gt;87</title>
<path fill="none" stroke="black" d="M2561.57,-146.83C2571.75,-136.94 2585.52,-123.55 2597.03,-112.36"/>
<polygon fill="black" stroke="black" points="2599.47,-114.87 2604.2,-105.38 2594.59,-109.85 2599.47,-114.87"/>
</g>
<!-- 86 -->
<g id="node87" class="node">
<title>86</title>
<ellipse fill="none" stroke="black" cx="2547" cy="-18" rx="27" ry="18"/>
<text text-anchor="middle" x="2547" y="-13.8" font-family="Times,serif" font-size="14.00">C</text>
</g>
<!-- 85&#45;&gt;86 -->
<g id="edge86" class="edge">
<title>85&#45;&gt;86</title>
<path fill="none" stroke="black" d="M2547,-71.7C2547,-63.98 2547,-54.71 2547,-46.11"/>
<polygon fill="black" stroke="black" points="2550.5,-46.1 2547,-36.1 2543.5,-46.1 2550.5,-46.1"/>
</g>
</g>
</svg>
