<?xml version="1.0" encoding="UTF-8" standalone="no"?>
<!DOCTYPE svg PUBLIC "-//W3C//DTD SVG 1.1//EN"
 "http://www.w3.org/Graphics/SVG/1.1/DTD/svg11.dtd">
<!-- Generated by graphviz version 2.42.3 (20191010.1750)
 -->
<!-- Title: %3 Pages: 1 -->
<svg width="964pt" height="973pt"
 viewBox="0.00 0.00 963.50 973.00" xmlns="http://www.w3.org/2000/svg" xmlns:xlink="http://www.w3.org/1999/xlink">
<g id="graph0" class="graph" transform="scale(1 1) rotate(0) translate(4 969)">
<title>%3</title>
<polygon fill="white" stroke="transparent" points="-4,4 -4,-969 959.5,-969 959.5,4 -4,4"/>
<g id="clust1" class="cluster">
<title>cluster0</title>
<polygon fill="none" stroke="black" points="8,-8 8,-768 259,-768 259,-8 8,-8"/>
</g>
<g id="clust2" class="cluster">
<title>cluster1</title>
<polygon fill="none" stroke="black" points="267,-216 267,-748 608,-748 608,-216 267,-216"/>
</g>
<g id="clust3" class="cluster">
<title>cluster2</title>
<polygon fill="none" stroke="black" points="670,-216 670,-758 884,-758 884,-216 670,-216"/>
</g>
<!-- entry0 -->
<g id="node1" class="node">
<title>entry0</title>
<ellipse fill="black" stroke="black" cx="194" cy="-696" rx="18" ry="18"/>
</g>
<!-- start_node0 -->
<g id="node2" class="node">
<title>start_node0</title>
<ellipse fill="none" stroke="black" cx="127" cy="-550" rx="46.89" ry="18"/>
<text text-anchor="middle" x="127" y="-545.8" font-family="Times,serif" font-size="14.00">start_node</text>
</g>
<!-- entry0&#45;&gt;start_node0 -->
<g id="edge1" class="edge">
<title>entry0&#45;&gt;start_node0</title>
<path fill="none" stroke="black" d="M189.78,-678.29C185.69,-664.68 178.42,-645.56 167,-632 157.53,-620.76 147.49,-626.18 139.27,-614 132.25,-603.6 129.04,-590.17 127.63,-578.38"/>
<polygon fill="black" stroke="black" points="131.1,-577.84 126.8,-568.15 124.12,-578.41 131.1,-577.84"/>
<text text-anchor="middle" x="201.87" y="-602.8" font-family="Times,serif" font-size="14.00">entryTreeFlag/</text>
<text text-anchor="middle" x="201.87" y="-588.8" font-family="Times,serif" font-size="14.00">node:=nextNode(tree)</text>
</g>
<!-- end_node0 -->
<g id="node3" class="node">
<title>end_node0</title>
<ellipse fill="none" stroke="black" cx="127" cy="-450" rx="44.48" ry="18"/>
<text text-anchor="middle" x="127" y="-445.8" font-family="Times,serif" font-size="14.00">end_node</text>
</g>
<!-- start_node0&#45;&gt;end_node0 -->
<g id="edge2" class="edge">
<title>start_node0&#45;&gt;end_node0</title>
<path fill="none" stroke="black" d="M127,-531.93C127,-517.12 127,-495.43 127,-478.23"/>
<polygon fill="black" stroke="black" points="130.5,-478.2 127,-468.2 123.5,-478.2 130.5,-478.2"/>
<text text-anchor="middle" x="176.56" y="-502.8" font-family="Times,serif" font-size="14.00">True/</text>
<text text-anchor="middle" x="176.56" y="-488.8" font-family="Times,serif" font-size="14.00">node.entryNode()</text>
</g>
<!-- get_link0 -->
<g id="node4" class="node">
<title>get_link0</title>
<ellipse fill="none" stroke="black" cx="127" cy="-350" rx="39.18" ry="18"/>
<text text-anchor="middle" x="127" y="-345.8" font-family="Times,serif" font-size="14.00">get_link</text>
</g>
<!-- end_node0&#45;&gt;get_link0 -->
<g id="edge3" class="edge">
<title>end_node0&#45;&gt;get_link0</title>
<path fill="none" stroke="black" d="M127,-431.93C127,-417.12 127,-395.43 127,-378.23"/>
<polygon fill="black" stroke="black" points="130.5,-378.2 127,-368.2 123.5,-378.2 130.5,-378.2"/>
<text text-anchor="middle" x="180.07" y="-395.8" font-family="Times,serif" font-size="14.00">node.ifExitNode()/</text>
</g>
<!-- check_link0 -->
<g id="node5" class="node">
<title>check_link0</title>
<ellipse fill="none" stroke="black" cx="65" cy="-246" rx="48.81" ry="18"/>
<text text-anchor="middle" x="65" y="-241.8" font-family="Times,serif" font-size="14.00">check_link</text>
</g>
<!-- get_link0&#45;&gt;check_link0 -->
<g id="edge4" class="edge">
<title>get_link0&#45;&gt;check_link0</title>
<path fill="none" stroke="black" d="M89.21,-344.85C69.45,-340.54 46.87,-331.79 34.59,-314 25.39,-300.68 32.75,-284.13 42.52,-270.82"/>
<polygon fill="black" stroke="black" points="45.27,-272.99 48.8,-263 39.81,-268.61 45.27,-272.99"/>
<text text-anchor="middle" x="92.21" y="-302.8" font-family="Times,serif" font-size="14.00">True/</text>
<text text-anchor="middle" x="92.21" y="-288.8" font-family="Times,serif" font-size="14.00">link:=nextLink(tree)</text>
</g>
<!-- end_link0 -->
<g id="node6" class="node">
<title>end_link0</title>
<ellipse fill="none" stroke="black" cx="183" cy="-142" rx="41.11" ry="18"/>
<text text-anchor="middle" x="183" y="-137.8" font-family="Times,serif" font-size="14.00">end_link</text>
</g>
<!-- check_link0&#45;&gt;end_link0 -->
<g id="edge5" class="edge">
<title>check_link0&#45;&gt;end_link0</title>
<path fill="none" stroke="black" d="M93.55,-231.35C106.05,-224.66 120.45,-215.9 132,-206 133.94,-204.34 150.09,-184.28 163.71,-167.24"/>
<polygon fill="black" stroke="black" points="166.61,-169.21 170.11,-159.21 161.14,-164.85 166.61,-169.21"/>
<text text-anchor="middle" x="199.91" y="-194.8" font-family="Times,serif" font-size="14.00">link!=&quot;&quot;/</text>
<text text-anchor="middle" x="199.91" y="-180.8" font-family="Times,serif" font-size="14.00">link.entryLink()</text>
</g>
<!-- end_tree0 -->
<g id="node7" class="node">
<title>end_tree0</title>
<ellipse fill="none" stroke="black" cx="57" cy="-142" rx="40.6" ry="18"/>
<text text-anchor="middle" x="57" y="-137.8" font-family="Times,serif" font-size="14.00">end_tree</text>
</g>
<!-- check_link0&#45;&gt;end_tree0 -->
<g id="edge7" class="edge">
<title>check_link0&#45;&gt;end_tree0</title>
<path fill="none" stroke="black" d="M48.75,-228.99C43.21,-222.44 37.68,-214.43 34.8,-206 30.77,-194.22 31.33,-189.95 34.8,-178 35.79,-174.58 37.23,-171.17 38.91,-167.9"/>
<polygon fill="black" stroke="black" points="42.01,-169.54 44.08,-159.15 35.98,-165.98 42.01,-169.54"/>
<text text-anchor="middle" x="83.6" y="-194.8" font-family="Times,serif" font-size="14.00">else/</text>
<text text-anchor="middle" x="83.6" y="-180.8" font-family="Times,serif" font-size="14.00">popNodesStack()</text>
</g>
<!-- end_link0&#45;&gt;get_link0 -->
<g id="edge6" class="edge">
<title>end_link0&#45;&gt;get_link0</title>
<path fill="none" stroke="black" d="M215.11,-153.31C226.63,-158.74 238.39,-166.68 245,-178 251.27,-188.75 253.23,-196.66 245,-206 221.66,-232.49 191.74,-191.63 166.18,-216 134.18,-246.52 164.88,-272.73 149,-314 147.72,-317.32 146.12,-320.66 144.36,-323.89"/>
<polygon fill="black" stroke="black" points="141.27,-322.23 139.14,-332.61 147.28,-325.83 141.27,-322.23"/>
<text text-anchor="middle" x="215.41" y="-241.8" font-family="Times,serif" font-size="14.00">link.ifExitLink()/</text>
</g>
<!-- exit0 -->
<g id="node8" class="node">
<title>exit0</title>
<ellipse fill="black" stroke="black" cx="57" cy="-38" rx="18" ry="18"/>
<ellipse fill="none" stroke="black" cx="57" cy="-38" rx="22" ry="22"/>
</g>
<!-- end_tree0&#45;&gt;exit0 -->
<g id="edge8" class="edge">
<title>end_tree0&#45;&gt;exit0</title>
<path fill="none" stroke="black" d="M57,-123.7C57,-109.2 57,-88.13 57,-70.63"/>
<polygon fill="black" stroke="black" points="60.5,-70.29 57,-60.29 53.5,-70.29 60.5,-70.29"/>
<text text-anchor="middle" x="111.38" y="-94.8" font-family="Times,serif" font-size="14.00">True/</text>
<text text-anchor="middle" x="111.38" y="-80.8" font-family="Times,serif" font-size="14.00">exitTreeFlag:=True</text>
</g>
<!-- info0 -->
<g id="node9" class="node">
<title>info0</title>
<polygon fill="none" stroke="black" points="24,-736 24,-756 150,-756 150,-736 24,-736"/>
<text text-anchor="start" x="67.54" y="-742.8" font-family="Times,serif" font-size="14.00"> </text>
<text text-anchor="start" x="71.04" y="-742.8" font-family="Times,serif" font-weight="bold" font-size="14.00"> Tree </text>
<text text-anchor="start" x="102.96" y="-742.8" font-family="Times,serif" font-size="14.00"> </text>
<polygon fill="none" stroke="black" points="24,-716 24,-736 150,-736 150,-716 24,-716"/>
<text text-anchor="start" x="26.93" y="-721.8" font-family="Times,serif" font-size="14.00">entryTreeFlag:=False</text>
<polygon fill="none" stroke="black" points="24,-696 24,-716 150,-716 150,-696 24,-696"/>
<text text-anchor="start" x="30.81" y="-701.8" font-family="Times,serif" font-size="14.00">exitTreeFlag:=False</text>
<polygon fill="none" stroke="black" points="24,-676 24,-696 150,-696 150,-676 24,-676"/>
<text text-anchor="start" x="64.9" y="-681.8" font-family="Times,serif" font-size="14.00">tree:=&quot;&quot;</text>
<polygon fill="none" stroke="black" points="24,-656 24,-676 150,-676 150,-656 24,-656"/>
<text text-anchor="start" x="61.79" y="-661.8" font-family="Times,serif" font-size="14.00">node:=&quot;&quot;</text>
<polygon fill="none" stroke="black" points="24,-636 24,-656 150,-656 150,-636 24,-636"/>
<text text-anchor="start" x="64.5" y="-641.8" font-family="Times,serif" font-size="14.00">link:=&quot;&quot;</text>
</g>
<!-- required0 -->
<g id="node10" class="node">
<title>required0</title>
<polygon fill="none" stroke="black" points="78,-941 78,-961 186,-961 186,-941 78,-941"/>
<text text-anchor="start" x="99.34" y="-947.8" font-family="Times,serif" font-size="14.00"> </text>
<text text-anchor="start" x="102.84" y="-947.8" font-family="Times,serif" font-weight="bold" font-size="14.00"> Required </text>
<text text-anchor="start" x="161.16" y="-947.8" font-family="Times,serif" font-size="14.00"> </text>
<polygon fill="none" stroke="black" points="78,-921 78,-941 186,-941 186,-921 78,-921"/>
<text text-anchor="start" x="96.62" y="-926.8" font-family="Times,serif" font-size="14.00">nextNode(x)</text>
<polygon fill="none" stroke="black" points="78,-901 78,-921 186,-921 186,-901 78,-901"/>
<text text-anchor="start" x="98.57" y="-906.8" font-family="Times,serif" font-size="14.00">nextLink(x)</text>
<polygon fill="none" stroke="black" points="78,-881 78,-901 186,-901 186,-881 78,-881"/>
<text text-anchor="start" x="83.4" y="-886.8" font-family="Times,serif" font-size="14.00">popNodesStack()</text>
<polygon fill="none" stroke="black" points="78,-861 78,-881 186,-881 186,-861 78,-861"/>
<text text-anchor="start" x="82.44" y="-866.8" font-family="Times,serif" font-size="14.00">node.entryNode()</text>
<polygon fill="none" stroke="black" points="78,-841 78,-861 186,-861 186,-841 78,-841"/>
<text text-anchor="start" x="80.88" y="-846.8" font-family="Times,serif" font-size="14.00">node.ifExitNode()</text>
<polygon fill="none" stroke="black" points="78,-821 78,-841 186,-841 186,-821 78,-821"/>
<text text-anchor="start" x="87.09" y="-826.8" font-family="Times,serif" font-size="14.00">link.entryLink()</text>
<polygon fill="none" stroke="black" points="78,-801 78,-821 186,-821 186,-801 78,-801"/>
<text text-anchor="start" x="85.54" y="-806.8" font-family="Times,serif" font-size="14.00">link.ifExitLink()</text>
</g>
<!-- required0&#45;&gt;entry0 -->
<g id="edge9" class="edge">
<title>required0&#45;&gt;entry0</title>
<path fill="none" stroke="black" d="M162.82,-789.02C165.22,-781.96 167.61,-774.9 169.95,-768"/>
<ellipse fill="none" stroke="black" cx="161.47" cy="-793.01" rx="4" ry="4"/>
</g>
<!-- provided0 -->
<g id="node11" class="node">
<title>provided0</title>
<polygon fill="none" stroke="black" points="220,-891 220,-911 292,-911 292,-891 220,-891"/>
<text text-anchor="start" x="223.72" y="-897.8" font-family="Times,serif" font-size="14.00"> </text>
<text text-anchor="start" x="227.22" y="-897.8" font-family="Times,serif" font-weight="bold" font-size="14.00"> Provided </text>
<text text-anchor="start" x="284.78" y="-897.8" font-family="Times,serif" font-size="14.00"> </text>
<polygon fill="none" stroke="black" points="220,-871 220,-891 292,-891 292,-871 220,-871"/>
<text text-anchor="start" x="224.38" y="-876.8" font-family="Times,serif" font-size="14.00">entryTree()</text>
<polygon fill="none" stroke="black" points="220,-851 220,-871 292,-871 292,-851 220,-851"/>
<text text-anchor="start" x="222.82" y="-856.8" font-family="Times,serif" font-size="14.00">ifExitTree()</text>
</g>
<!-- provided0&#45;&gt;entry0 -->
<g id="edge10" class="edge">
<title>provided0&#45;&gt;entry0</title>
<path fill="none" stroke="black" d="M241.5,-837.21C234.53,-816.62 225.97,-791.37 218.05,-768"/>
<polyline fill="none" stroke="black" points="244.77,-846.86 241.56,-837.39 "/>
<path fill="none" stroke="black" d="M247.9,-840.52C245.53,-834.21 236.53,-837.41 238.43,-843.73"/>
</g>
<!-- entry1 -->
<g id="node12" class="node">
<title>entry1</title>
<ellipse fill="black" stroke="black" cx="582" cy="-696" rx="18" ry="18"/>
</g>
<!-- print_node1 -->
<g id="node13" class="node">
<title>print_node1</title>
<ellipse fill="none" stroke="black" cx="470" cy="-550" rx="48.34" ry="18"/>
<text text-anchor="middle" x="470" y="-545.8" font-family="Times,serif" font-size="14.00">print_node</text>
</g>
<!-- entry1&#45;&gt;print_node1 -->
<g id="edge11" class="edge">
<title>entry1&#45;&gt;print_node1</title>
<path fill="none" stroke="black" d="M577,-678.55C572.5,-665.26 565.05,-646.46 555,-632 554.85,-631.78 519.22,-597.85 494.15,-573.98"/>
<polygon fill="black" stroke="black" points="496.41,-571.3 486.75,-566.94 491.58,-576.37 496.41,-571.3"/>
<text text-anchor="middle" x="598.93" y="-602.8" font-family="Times,serif" font-size="14.00">entryNodeFlag/</text>
<text text-anchor="middle" x="598.93" y="-588.8" font-family="Times,serif" font-size="14.00">pushNodesStack(node)</text>
</g>
<!-- check_link1 -->
<g id="node14" class="node">
<title>check_link1</title>
<ellipse fill="none" stroke="black" cx="470" cy="-450" rx="48.81" ry="18"/>
<text text-anchor="middle" x="470" y="-445.8" font-family="Times,serif" font-size="14.00">check_link</text>
</g>
<!-- print_node1&#45;&gt;check_link1 -->
<g id="edge12" class="edge">
<title>print_node1&#45;&gt;check_link1</title>
<path fill="none" stroke="black" d="M470,-531.93C470,-517.12 470,-495.43 470,-478.23"/>
<polygon fill="black" stroke="black" points="473.5,-478.2 470,-468.2 466.5,-478.2 473.5,-478.2"/>
<text text-anchor="middle" x="503.04" y="-502.8" font-family="Times,serif" font-size="14.00">True/</text>
<text text-anchor="middle" x="503.04" y="-488.8" font-family="Times,serif" font-size="14.00">printNode()</text>
</g>
<!-- end_node1 -->
<g id="node15" class="node">
<title>end_node1</title>
<ellipse fill="none" stroke="black" cx="331" cy="-350" rx="44.48" ry="18"/>
<text text-anchor="middle" x="331" y="-345.8" font-family="Times,serif" font-size="14.00">end_node</text>
</g>
<!-- check_link1&#45;&gt;end_node1 -->
<g id="edge13" class="edge">
<title>check_link1&#45;&gt;end_node1</title>
<path fill="none" stroke="black" d="M423.4,-444.16C385.15,-439.12 335.33,-429.7 322.92,-414 314.91,-403.86 315.93,-389.8 319.39,-377.54"/>
<polygon fill="black" stroke="black" points="322.8,-378.38 322.72,-367.78 316.17,-376.11 322.8,-378.38"/>
<text text-anchor="middle" x="398.04" y="-402.8" font-family="Times,serif" font-size="14.00">sizeNodesStack()&gt;1/</text>
<text text-anchor="middle" x="398.04" y="-388.8" font-family="Times,serif" font-size="14.00">printLink(popLinkStack())</text>
</g>
<!-- exit1 -->
<g id="node16" class="node">
<title>exit1</title>
<ellipse fill="black" stroke="black" cx="400" cy="-246" rx="18" ry="18"/>
<ellipse fill="none" stroke="black" cx="400" cy="-246" rx="22" ry="22"/>
</g>
<!-- check_link1&#45;&gt;exit1 -->
<g id="edge15" class="edge">
<title>check_link1&#45;&gt;exit1</title>
<path fill="none" stroke="black" d="M475.86,-431.78C485.45,-400.28 500.8,-332.37 473,-286 463.91,-270.84 446.69,-261.24 431.26,-255.36"/>
<polygon fill="black" stroke="black" points="432.08,-251.94 421.48,-252.01 429.81,-258.56 432.08,-251.94"/>
<text text-anchor="middle" x="544.97" y="-352.8" font-family="Times,serif" font-size="14.00">else/</text>
<text text-anchor="middle" x="544.97" y="-338.8" font-family="Times,serif" font-size="14.00">exitNodeFlag:=True</text>
</g>
<!-- end_node1&#45;&gt;exit1 -->
<g id="edge14" class="edge">
<title>end_node1&#45;&gt;exit1</title>
<path fill="none" stroke="black" d="M336.51,-332.01C341.28,-318.77 348.99,-300.29 359.07,-286 363.66,-279.49 369.45,-273.19 375.22,-267.62"/>
<polygon fill="black" stroke="black" points="377.95,-269.87 382.96,-260.53 373.22,-264.71 377.95,-269.87"/>
<text text-anchor="middle" x="416.97" y="-302.8" font-family="Times,serif" font-size="14.00">True/</text>
<text text-anchor="middle" x="416.97" y="-288.8" font-family="Times,serif" font-size="14.00">exitNodeFlag:=True</text>
</g>
<!-- inner1 -->
<g id="node17" class="node">
<title>inner1</title>
<polygon fill="none" stroke="black" points="449,-706 449,-726 538,-726 538,-706 449,-706"/>
<text text-anchor="start" x="471.73" y="-712.8" font-family="Times,serif" font-size="14.00"> </text>
<text text-anchor="start" x="475.23" y="-712.8" font-family="Times,serif" font-weight="bold" font-size="14.00"> Inner </text>
<text text-anchor="start" x="511.77" y="-712.8" font-family="Times,serif" font-size="14.00"> </text>
<polygon fill="none" stroke="black" points="449,-686 449,-706 538,-706 538,-686 449,-686"/>
<text text-anchor="start" x="460.46" y="-691.8" font-family="Times,serif" font-size="14.00">printNode()</text>
<polygon fill="none" stroke="black" points="449,-666 449,-686 538,-686 538,-666 449,-666"/>
<text text-anchor="start" x="451.51" y="-671.8" font-family="Times,serif" font-size="14.00">printLink(link)</text>
</g>
<!-- info1 -->
<g id="node18" class="node">
<title>info1</title>
<polygon fill="none" stroke="black" points="284,-716 284,-736 415,-736 415,-716 284,-716"/>
<text text-anchor="start" x="327.34" y="-722.8" font-family="Times,serif" font-size="14.00"> </text>
<text text-anchor="start" x="330.84" y="-722.8" font-family="Times,serif" font-weight="bold" font-size="14.00"> Node </text>
<text text-anchor="start" x="368.16" y="-722.8" font-family="Times,serif" font-size="14.00"> </text>
<polygon fill="none" stroke="black" points="284,-696 284,-716 415,-716 415,-696 284,-696"/>
<text text-anchor="start" x="286.84" y="-701.8" font-family="Times,serif" font-size="14.00">entryNodeFlag:=False</text>
<polygon fill="none" stroke="black" points="284,-676 284,-696 415,-696 415,-676 284,-676"/>
<text text-anchor="start" x="290.73" y="-681.8" font-family="Times,serif" font-size="14.00">exitNodeFlag:=False</text>
<polygon fill="none" stroke="black" points="284,-656 284,-676 415,-676 415,-656 284,-656"/>
<text text-anchor="start" x="324.29" y="-661.8" font-family="Times,serif" font-size="14.00">node:=&quot;&quot;</text>
</g>
<!-- required1 -->
<g id="node19" class="node">
<title>required1</title>
<polygon fill="none" stroke="black" points="460,-901 460,-921 575,-921 575,-901 460,-901"/>
<text text-anchor="start" x="484.84" y="-907.8" font-family="Times,serif" font-size="14.00"> </text>
<text text-anchor="start" x="488.34" y="-907.8" font-family="Times,serif" font-weight="bold" font-size="14.00"> Required </text>
<text text-anchor="start" x="546.66" y="-907.8" font-family="Times,serif" font-size="14.00"> </text>
<polygon fill="none" stroke="black" points="460,-881 460,-901 575,-901 575,-881 460,-881"/>
<text text-anchor="start" x="473.57" y="-886.8" font-family="Times,serif" font-size="14.00">popLinkStack()</text>
<polygon fill="none" stroke="black" points="460,-861 460,-881 575,-881 575,-861 460,-861"/>
<text text-anchor="start" x="462.68" y="-866.8" font-family="Times,serif" font-size="14.00">pushNodesStack(x)</text>
<polygon fill="none" stroke="black" points="460,-841 460,-861 575,-861 575,-841 460,-841"/>
<text text-anchor="start" x="471.24" y="-846.8" font-family="Times,serif" font-size="14.00">sizeNodeStack()</text>
</g>
<!-- required1&#45;&gt;entry1 -->
<g id="edge16" class="edge">
<title>required1&#45;&gt;entry1</title>
<path fill="none" stroke="black" d="M535.1,-829.03C544.08,-803.75 554.9,-773.29 563.89,-748"/>
<ellipse fill="none" stroke="black" cx="533.74" cy="-832.86" rx="4" ry="4"/>
</g>
<!-- provided1 -->
<g id="node20" class="node">
<title>provided1</title>
<polygon fill="none" stroke="black" points="609,-891 609,-911 686,-911 686,-891 609,-891"/>
<text text-anchor="start" x="615.22" y="-897.8" font-family="Times,serif" font-size="14.00"> </text>
<text text-anchor="start" x="618.72" y="-897.8" font-family="Times,serif" font-weight="bold" font-size="14.00"> Provided </text>
<text text-anchor="start" x="676.28" y="-897.8" font-family="Times,serif" font-size="14.00"> </text>
<polygon fill="none" stroke="black" points="609,-871 609,-891 686,-891 686,-871 609,-871"/>
<text text-anchor="start" x="613.29" y="-876.8" font-family="Times,serif" font-size="14.00">entryNode()</text>
<polygon fill="none" stroke="black" points="609,-851 609,-871 686,-871 686,-851 609,-851"/>
<text text-anchor="start" x="611.73" y="-856.8" font-family="Times,serif" font-size="14.00">ifExitNode()</text>
</g>
<!-- provided1&#45;&gt;entry1 -->
<g id="edge17" class="edge">
<title>provided1&#45;&gt;entry1</title>
<path fill="none" stroke="black" d="M631.8,-837.21C622.33,-810.54 610.09,-776.08 600.11,-748"/>
<polyline fill="none" stroke="black" points="635.23,-846.86 631.88,-837.44 "/>
<path fill="none" stroke="black" d="M638.27,-840.47C635.8,-834.19 626.85,-837.54 628.84,-843.82"/>
</g>
<!-- entry2 -->
<g id="node21" class="node">
<title>entry2</title>
<ellipse fill="black" stroke="black" cx="858" cy="-696" rx="18" ry="18"/>
</g>
<!-- get_tree2 -->
<g id="node22" class="node">
<title>get_tree2</title>
<ellipse fill="none" stroke="black" cx="761" cy="-550" rx="38.67" ry="18"/>
<text text-anchor="middle" x="761" y="-545.8" font-family="Times,serif" font-size="14.00">get_tree</text>
</g>
<!-- entry2&#45;&gt;get_tree2 -->
<g id="edge18" class="edge">
<title>entry2&#45;&gt;get_tree2</title>
<path fill="none" stroke="black" d="M852.62,-678.8C847.9,-665.66 840.34,-646.93 831,-632 817.74,-610.8 799.08,-589.51 784.36,-574.08"/>
<polygon fill="black" stroke="black" points="786.55,-571.31 777.08,-566.58 781.53,-576.19 786.55,-571.31"/>
<text text-anchor="middle" x="874.55" y="-602.8" font-family="Times,serif" font-size="14.00">entryLinkFlag/</text>
<text text-anchor="middle" x="874.55" y="-588.8" font-family="Times,serif" font-size="14.00">pushLinkStack(link)</text>
</g>
<!-- start_tree2 -->
<g id="node23" class="node">
<title>start_tree2</title>
<ellipse fill="none" stroke="black" cx="761" cy="-450" rx="43.01" ry="18"/>
<text text-anchor="middle" x="761" y="-445.8" font-family="Times,serif" font-size="14.00">start_tree</text>
</g>
<!-- get_tree2&#45;&gt;start_tree2 -->
<g id="edge19" class="edge">
<title>get_tree2&#45;&gt;start_tree2</title>
<path fill="none" stroke="black" d="M761,-531.93C761,-517.12 761,-495.43 761,-478.23"/>
<polygon fill="black" stroke="black" points="764.5,-478.2 761,-468.2 757.5,-478.2 764.5,-478.2"/>
<text text-anchor="middle" x="817.56" y="-502.8" font-family="Times,serif" font-size="14.00">True/</text>
<text text-anchor="middle" x="817.56" y="-488.8" font-family="Times,serif" font-size="14.00">tree:=nextTree(link)</text>
</g>
<!-- end_tree2 -->
<g id="node24" class="node">
<title>end_tree2</title>
<ellipse fill="none" stroke="black" cx="761" cy="-350" rx="40.6" ry="18"/>
<text text-anchor="middle" x="761" y="-345.8" font-family="Times,serif" font-size="14.00">end_tree</text>
</g>
<!-- start_tree2&#45;&gt;end_tree2 -->
<g id="edge20" class="edge">
<title>start_tree2&#45;&gt;end_tree2</title>
<path fill="none" stroke="black" d="M761,-431.93C761,-417.12 761,-395.43 761,-378.23"/>
<polygon fill="black" stroke="black" points="764.5,-378.2 761,-368.2 757.5,-378.2 764.5,-378.2"/>
<text text-anchor="middle" x="804.86" y="-402.8" font-family="Times,serif" font-size="14.00">True/</text>
<text text-anchor="middle" x="804.86" y="-388.8" font-family="Times,serif" font-size="14.00">tree.entryTree()</text>
</g>
<!-- exit2 -->
<g id="node25" class="node">
<title>exit2</title>
<ellipse fill="black" stroke="black" cx="761" cy="-246" rx="18" ry="18"/>
<ellipse fill="none" stroke="black" cx="761" cy="-246" rx="22" ry="22"/>
</g>
<!-- end_tree2&#45;&gt;exit2 -->
<g id="edge21" class="edge">
<title>end_tree2&#45;&gt;exit2</title>
<path fill="none" stroke="black" d="M761,-331.7C761,-317.2 761,-296.13 761,-278.63"/>
<polygon fill="black" stroke="black" points="764.5,-278.29 761,-268.29 757.5,-278.29 764.5,-278.29"/>
<text text-anchor="middle" x="816.03" y="-302.8" font-family="Times,serif" font-size="14.00">tree.ifExitTree()/</text>
<text text-anchor="middle" x="816.03" y="-288.8" font-family="Times,serif" font-size="14.00">exitLinkFlag:=True</text>
</g>
<!-- info2 -->
<g id="node26" class="node">
<title>info2</title>
<polygon fill="none" stroke="black" points="687,-726 687,-746 814,-746 814,-726 687,-726"/>
<text text-anchor="start" x="730.28" y="-732.8" font-family="Times,serif" font-size="14.00"> </text>
<text text-anchor="start" x="733.78" y="-732.8" font-family="Times,serif" font-weight="bold" font-size="14.00"> Link </text>
<text text-anchor="start" x="767.22" y="-732.8" font-family="Times,serif" font-size="14.00"> </text>
<polygon fill="none" stroke="black" points="687,-706 687,-726 814,-726 814,-706 687,-706"/>
<text text-anchor="start" x="689.78" y="-711.8" font-family="Times,serif" font-size="14.00">entryLinkFlag:=False</text>
<polygon fill="none" stroke="black" points="687,-686 687,-706 814,-706 814,-686 687,-686"/>
<text text-anchor="start" x="693.67" y="-691.8" font-family="Times,serif" font-size="14.00">exitLinkFlag:=False</text>
<polygon fill="none" stroke="black" points="687,-666 687,-686 814,-686 814,-666 687,-666"/>
<text text-anchor="start" x="728" y="-671.8" font-family="Times,serif" font-size="14.00">link:=&quot;&quot;</text>
<polygon fill="none" stroke="black" points="687,-646 687,-666 814,-666 814,-646 687,-646"/>
<text text-anchor="start" x="728.4" y="-651.8" font-family="Times,serif" font-size="14.00">tree:=&quot;&quot;</text>
</g>
<!-- required2 -->
<g id="node27" class="node">
<title>required2</title>
<polygon fill="none" stroke="black" points="720,-911 720,-931 841,-931 841,-911 720,-911"/>
<text text-anchor="start" x="747.84" y="-917.8" font-family="Times,serif" font-size="14.00"> </text>
<text text-anchor="start" x="751.34" y="-917.8" font-family="Times,serif" font-weight="bold" font-size="14.00"> Required </text>
<text text-anchor="start" x="809.66" y="-917.8" font-family="Times,serif" font-size="14.00"> </text>
<polygon fill="none" stroke="black" points="720,-891 720,-911 841,-911 841,-891 720,-891"/>
<text text-anchor="start" x="747.71" y="-896.8" font-family="Times,serif" font-size="14.00">nextTree(x)</text>
<polygon fill="none" stroke="black" points="720,-871 720,-891 841,-891 841,-871 720,-871"/>
<text text-anchor="start" x="722.95" y="-876.8" font-family="Times,serif" font-size="14.00">pushLinkStack(link)</text>
<polygon fill="none" stroke="black" points="720,-851 720,-871 841,-871 841,-851 720,-851"/>
<text text-anchor="start" x="736.64" y="-856.8" font-family="Times,serif" font-size="14.00">tree.entryTree()</text>
<polygon fill="none" stroke="black" points="720,-831 720,-851 841,-851 841,-831 720,-831"/>
<text text-anchor="start" x="735.08" y="-836.8" font-family="Times,serif" font-size="14.00">tree.ifExitTree()</text>
</g>
<!-- required2&#45;&gt;entry2 -->
<g id="edge22" class="edge">
<title>required2&#45;&gt;entry2</title>
<path fill="none" stroke="black" d="M808.51,-819.27C816.04,-802.73 824.01,-784.76 831,-768 832.36,-764.74 833.73,-761.39 835.09,-758"/>
<ellipse fill="none" stroke="black" cx="806.75" cy="-823.12" rx="4" ry="4"/>
</g>
<!-- provided2 -->
<g id="node28" class="node">
<title>provided2</title>
<polygon fill="none" stroke="black" points="875,-891 875,-911 948,-911 948,-891 875,-891"/>
<text text-anchor="start" x="879.22" y="-897.8" font-family="Times,serif" font-size="14.00"> </text>
<text text-anchor="start" x="882.72" y="-897.8" font-family="Times,serif" font-weight="bold" font-size="14.00"> Provided </text>
<text text-anchor="start" x="940.28" y="-897.8" font-family="Times,serif" font-size="14.00"> </text>
<polygon fill="none" stroke="black" points="875,-871 875,-891 948,-891 948,-871 875,-871"/>
<text text-anchor="start" x="879.23" y="-876.8" font-family="Times,serif" font-size="14.00">entryLink()</text>
<polygon fill="none" stroke="black" points="875,-851 875,-871 948,-871 948,-851 875,-851"/>
<text text-anchor="start" x="877.68" y="-856.8" font-family="Times,serif" font-size="14.00">ifExitLink()</text>
</g>
<!-- provided2&#45;&gt;entry2 -->
<g id="edge23" class="edge">
<title>provided2&#45;&gt;entry2</title>
<path fill="none" stroke="black" d="M898.61,-837.21C891.78,-813.64 883.19,-783.96 875.67,-758"/>
<polyline fill="none" stroke="black" points="901.4,-846.86 898.62,-837.25 "/>
<path fill="none" stroke="black" d="M904.81,-840.67C902.72,-834.26 893.59,-837.04 895.21,-843.45"/>
</g>
</g>
</svg>
