<?xml version="1.0" encoding="utf-8"?>
<!-- Generator: Adobe Illustrator 16.0.0, SVG Export Plug-In . SVG Version: 6.00 Build 0)  -->
<!DOCTYPE svg PUBLIC "-//W3C//DTD SVG 1.1//EN" "http://www.w3.org/Graphics/SVG/1.1/DTD/svg11.dtd" [
	<!ENTITY ns_flows "http://ns.adobe.com/Flows/1.0/">
	<!ENTITY ns_extend "http://ns.adobe.com/Extensibility/1.0/">
	<!ENTITY ns_ai "http://ns.adobe.com/AdobeIllustrator/10.0/">
	<!ENTITY ns_graphs "http://ns.adobe.com/Graphs/1.0/">
]>
<svg version="1.1" id="Слой_1" xmlns:x="&ns_extend;" xmlns:i="&ns_ai;" xmlns:graph="&ns_graphs;"
	 xmlns="http://www.w3.org/2000/svg" xmlns:xlink="http://www.w3.org/1999/xlink" xmlns:a="http://ns.adobe.com/AdobeSVGViewerExtensions/3.0/"
	 x="0px" y="0px" width="150px" height="190px" viewBox="0 0 150 190" enable-background="new 0 0 150 190" xml:space="preserve">
<path fill-rule="evenodd" clip-rule="evenodd" d="M116.052,74.499l-13.821-10.608c1.953-2.742,3.515-4.849,4.414-5.9
	c4.943-5.776,18.222,3.341,13.333,10.665C119.156,69.889,117.776,71.941,116.052,74.499z M90.766,111.897l-15.288,6.359
	l1.293-16.864c0,0,6.536-9.865,13.579-20.267l-6.122-15.966l-29.958,8.509l5.864,19.438l-17.792,5.17l16.412,44.361l49.411-15.046
	l-7.905-20.619l3.458-6.247l11.269,30.762l-60.163,17.982L35.737,95.664l11.602-25.696l40.789-11.8l6.243,17.044
	c1.661-2.431,3.286-4.792,4.796-6.962l13.902,10.671C104.164,92.114,90.766,111.897,90.766,111.897z"/>
</svg>
