<?xml version="1.0" encoding="UTF-8" standalone="no"?>
<!DOCTYPE svg PUBLIC "-//W3C//DTD SVG 1.1//EN"
 "http://www.w3.org/Graphics/SVG/1.1/DTD/svg11.dtd">
<!-- Generated by graphviz version 3.0.0 (20220226.1711)
 -->
<!-- Pages: 1 -->
<svg width="931pt" height="999pt"
 viewBox="0.00 0.00 930.50 999.00" xmlns="http://www.w3.org/2000/svg" xmlns:xlink="http://www.w3.org/1999/xlink">
<g id="graph0" class="graph" transform="scale(1 1) rotate(0) translate(4 995)">
<polygon fill="white" stroke="transparent" points="-4,4 -4,-995 926.5,-995 926.5,4 -4,4"/>
<g id="clust1" class="cluster">
<title>cluster0</title>
<polygon fill="none" stroke="black" points="8,-8 8,-786 257,-786 257,-8 8,-8"/>
</g>
<g id="clust3" class="cluster">
<title>cluster2</title>
<polygon fill="none" stroke="black" points="652,-220 652,-775.5 862,-775.5 862,-220 652,-220"/>
</g>
<g id="clust2" class="cluster">
<title>cluster1</title>
<polygon fill="none" stroke="black" points="268,-220 268,-765 604,-765 604,-220 268,-220"/>
</g>
<!-- entry0 -->
<g id="node1" class="node">
<title>entry0</title>
<ellipse fill="black" stroke="black" cx="192" cy="-711" rx="18" ry="18"/>
</g>
<!-- start_node0 -->
<g id="node2" class="node">
<title>start_node0</title>
<ellipse fill="none" stroke="black" cx="126" cy="-560" rx="49.29" ry="18"/>
<text text-anchor="middle" x="126" y="-556.3" font-family="Times New Roman,serif" font-size="14.00">start_node</text>
</g>
<!-- entry0&#45;&gt;start_node0 -->
<g id="edge1" class="edge">
<title>entry0&#45;&gt;start_node0</title>
<path fill="none" stroke="black" d="M187.87,-693.26C183.77,-679.1 176.43,-658.79 165,-644 156.85,-633.45 148.27,-637.17 141,-626 133.77,-614.89 130,-600.72 128.05,-588.45"/>
<polygon fill="black" stroke="black" points="131.49,-587.76 126.76,-578.27 124.55,-588.64 131.49,-587.76"/>
<text text-anchor="middle" x="202.5" y="-614.8" font-family="Times New Roman,serif" font-size="14.00">entryTreeFlag/</text>
<text text-anchor="middle" x="202.5" y="-599.8" font-family="Times New Roman,serif" font-size="14.00">node:=nextNode(tree)</text>
</g>
<!-- end_node0 -->
<g id="node3" class="node">
<title>end_node0</title>
<ellipse fill="none" stroke="black" cx="126" cy="-458" rx="46.59" ry="18"/>
<text text-anchor="middle" x="126" y="-454.3" font-family="Times New Roman,serif" font-size="14.00">end_node</text>
</g>
<!-- start_node0&#45;&gt;end_node0 -->
<g id="edge2" class="edge">
<title>start_node0&#45;&gt;end_node0</title>
<path fill="none" stroke="black" d="M126,-541.58C126,-526.38 126,-504.07 126,-486.46"/>
<polygon fill="black" stroke="black" points="129.5,-486.22 126,-476.22 122.5,-486.22 129.5,-486.22"/>
<text text-anchor="middle" x="176" y="-512.8" font-family="Times New Roman,serif" font-size="14.00">True/</text>
<text text-anchor="middle" x="176" y="-497.8" font-family="Times New Roman,serif" font-size="14.00">node.entryNode()</text>
</g>
<!-- get_link0 -->
<g id="node4" class="node">
<title>get_link0</title>
<ellipse fill="none" stroke="black" cx="126" cy="-356" rx="38.99" ry="18"/>
<text text-anchor="middle" x="126" y="-352.3" font-family="Times New Roman,serif" font-size="14.00">get_link</text>
</g>
<!-- end_node0&#45;&gt;get_link0 -->
<g id="edge3" class="edge">
<title>end_node0&#45;&gt;get_link0</title>
<path fill="none" stroke="black" d="M126,-439.58C126,-424.38 126,-402.07 126,-384.46"/>
<polygon fill="black" stroke="black" points="129.5,-384.22 126,-374.22 122.5,-384.22 129.5,-384.22"/>
<text text-anchor="middle" x="178.5" y="-403.3" font-family="Times New Roman,serif" font-size="14.00">node.ifExitNode()/</text>
</g>
<!-- check_link0 -->
<g id="node5" class="node">
<title>check_link0</title>
<ellipse fill="none" stroke="black" cx="66" cy="-250" rx="50.09" ry="18"/>
<text text-anchor="middle" x="66" y="-246.3" font-family="Times New Roman,serif" font-size="14.00">check_link</text>
</g>
<!-- get_link0&#45;&gt;check_link0 -->
<g id="edge4" class="edge">
<title>get_link0&#45;&gt;check_link0</title>
<path fill="none" stroke="black" d="M89.83,-348.98C72.89,-344.16 54.24,-335.5 44,-320 35.33,-306.87 40.39,-290.09 47.83,-276.37"/>
<polygon fill="black" stroke="black" points="51.05,-277.81 53.22,-267.44 45.06,-274.19 51.05,-277.81"/>
<text text-anchor="middle" x="98.5" y="-308.8" font-family="Times New Roman,serif" font-size="14.00">True/</text>
<text text-anchor="middle" x="98.5" y="-293.8" font-family="Times New Roman,serif" font-size="14.00">link:=nextLink(tree)</text>
</g>
<!-- end_link0 -->
<g id="node6" class="node">
<title>end_link0</title>
<ellipse fill="none" stroke="black" cx="183" cy="-144" rx="41.69" ry="18"/>
<text text-anchor="middle" x="183" y="-140.3" font-family="Times New Roman,serif" font-size="14.00">end_link</text>
</g>
<!-- check_link0&#45;&gt;end_link0 -->
<g id="edge5" class="edge">
<title>check_link0&#45;&gt;end_link0</title>
<path fill="none" stroke="black" d="M95.98,-235.56C108.81,-228.96 123.46,-220.22 135,-210 136.92,-208.3 152.28,-187.37 165.12,-169.72"/>
<polygon fill="black" stroke="black" points="168.1,-171.56 171.14,-161.41 162.44,-167.45 168.1,-171.56"/>
<text text-anchor="middle" x="200.5" y="-198.8" font-family="Times New Roman,serif" font-size="14.00">link!=&quot;&quot;/</text>
<text text-anchor="middle" x="200.5" y="-183.8" font-family="Times New Roman,serif" font-size="14.00">link.entryLink()</text>
</g>
<!-- end_tree0 -->
<g id="node7" class="node">
<title>end_tree0</title>
<ellipse fill="none" stroke="black" cx="58" cy="-144" rx="42.49" ry="18"/>
<text text-anchor="middle" x="58" y="-140.3" font-family="Times New Roman,serif" font-size="14.00">end_tree</text>
</g>
<!-- check_link0&#45;&gt;end_tree0 -->
<g id="edge7" class="edge">
<title>check_link0&#45;&gt;end_tree0</title>
<path fill="none" stroke="black" d="M49,-232.68C43.42,-226.21 37.91,-218.33 35,-210 30.61,-197.41 31.18,-192.77 35,-180 36.03,-176.55 37.52,-173.13 39.26,-169.85"/>
<polygon fill="black" stroke="black" points="42.39,-171.45 44.62,-161.09 36.42,-167.79 42.39,-171.45"/>
<text text-anchor="middle" x="85" y="-198.8" font-family="Times New Roman,serif" font-size="14.00">else/</text>
<text text-anchor="middle" x="85" y="-183.8" font-family="Times New Roman,serif" font-size="14.00">popNodesStack()</text>
</g>
<!-- end_link0&#45;&gt;get_link0 -->
<g id="edge6" class="edge">
<title>end_link0&#45;&gt;get_link0</title>
<path fill="none" stroke="black" d="M214.73,-155.86C225.68,-161.31 236.75,-169.12 243,-180 249.64,-191.56 251.74,-199.93 243,-210 222.41,-233.74 195.83,-198.4 173,-220 140.07,-251.15 171.78,-278.75 153,-320 151.3,-323.74 149.12,-327.45 146.75,-330.98"/>
<polygon fill="black" stroke="black" points="143.74,-329.16 140.6,-339.28 149.36,-333.33 143.74,-329.16"/>
<text text-anchor="middle" x="218.5" y="-246.3" font-family="Times New Roman,serif" font-size="14.00">link.ifExitLink()/</text>
</g>
<!-- exit0 -->
<g id="node8" class="node">
<title>exit0</title>
<ellipse fill="black" stroke="black" cx="58" cy="-38" rx="18" ry="18"/>
<ellipse fill="none" stroke="black" cx="58" cy="-38" rx="22" ry="22"/>
</g>
<!-- end_tree0&#45;&gt;exit0 -->
<g id="edge8" class="edge">
<title>end_tree0&#45;&gt;exit0</title>
<path fill="none" stroke="black" d="M58,-125.83C58,-110.78 58,-88.53 58,-70.32"/>
<polygon fill="black" stroke="black" points="61.5,-70.16 58,-60.16 54.5,-70.16 61.5,-70.16"/>
<text text-anchor="middle" x="111.5" y="-96.8" font-family="Times New Roman,serif" font-size="14.00">True/</text>
<text text-anchor="middle" x="111.5" y="-81.8" font-family="Times New Roman,serif" font-size="14.00">exitTreeFlag:=True</text>
</g>
<!-- info0 -->
<g id="node9" class="node">
<title>info0</title>
<polygon fill="none" stroke="black" points="24,-753 24,-774 148,-774 148,-753 24,-753"/>
<text text-anchor="start" x="63.5" y="-760.8" font-family="Times New Roman,serif" font-size="14.00"> </text>
<text text-anchor="start" x="67.5" y="-760.8" font-family="Times New Roman,serif" font-weight="bold" font-size="14.00"> Tree </text>
<text text-anchor="start" x="104.5" y="-760.8" font-family="Times New Roman,serif" font-size="14.00"> </text>
<polygon fill="none" stroke="black" points="24,-732 24,-753 148,-753 148,-732 24,-732"/>
<text text-anchor="start" x="27" y="-738.8" font-family="Times New Roman,serif" font-size="14.00">entryTreeFlag:=False</text>
<polygon fill="none" stroke="black" points="24,-711 24,-732 148,-732 148,-711 24,-711"/>
<text text-anchor="start" x="31" y="-717.8" font-family="Times New Roman,serif" font-size="14.00">exitTreeFlag:=False</text>
<polygon fill="none" stroke="black" points="24,-690 24,-711 148,-711 148,-690 24,-690"/>
<text text-anchor="start" x="64" y="-696.8" font-family="Times New Roman,serif" font-size="14.00">tree:=&quot;&quot;</text>
<polygon fill="none" stroke="black" points="24,-669 24,-690 148,-690 148,-669 24,-669"/>
<text text-anchor="start" x="60" y="-675.8" font-family="Times New Roman,serif" font-size="14.00">node:=&quot;&quot;</text>
<polygon fill="none" stroke="black" points="24,-648 24,-669 148,-669 148,-648 24,-648"/>
<text text-anchor="start" x="64.5" y="-654.8" font-family="Times New Roman,serif" font-size="14.00">link:=&quot;&quot;</text>
</g>
<!-- required0 -->
<g id="node10" class="node">
<title>required0</title>
<polygon fill="none" stroke="black" points="105,-966 105,-987 212,-987 212,-966 105,-966"/>
<text text-anchor="start" x="122.5" y="-973.8" font-family="Times New Roman,serif" font-size="14.00"> </text>
<text text-anchor="start" x="126.5" y="-973.8" font-family="Times New Roman,serif" font-weight="bold" font-size="14.00"> Required </text>
<text text-anchor="start" x="190.5" y="-973.8" font-family="Times New Roman,serif" font-size="14.00"> </text>
<polygon fill="none" stroke="black" points="105,-945 105,-966 212,-966 212,-945 105,-945"/>
<text text-anchor="start" x="123.5" y="-951.8" font-family="Times New Roman,serif" font-size="14.00">nextNode(x)</text>
<polygon fill="none" stroke="black" points="105,-924 105,-945 212,-945 212,-924 105,-924"/>
<text text-anchor="start" x="126.5" y="-930.8" font-family="Times New Roman,serif" font-size="14.00">nextLink(x)</text>
<polygon fill="none" stroke="black" points="105,-903 105,-924 212,-924 212,-903 105,-903"/>
<text text-anchor="start" x="108.5" y="-909.8" font-family="Times New Roman,serif" font-size="14.00">popNodesStack()</text>
<polygon fill="none" stroke="black" points="105,-882 105,-903 212,-903 212,-882 105,-882"/>
<text text-anchor="start" x="108.5" y="-888.8" font-family="Times New Roman,serif" font-size="14.00">node.entryNode()</text>
<polygon fill="none" stroke="black" points="105,-861 105,-882 212,-882 212,-861 105,-861"/>
<text text-anchor="start" x="108" y="-867.8" font-family="Times New Roman,serif" font-size="14.00">node.ifExitNode()</text>
<polygon fill="none" stroke="black" points="105,-840 105,-861 212,-861 212,-840 105,-840"/>
<text text-anchor="start" x="116" y="-846.8" font-family="Times New Roman,serif" font-size="14.00">link.entryLink()</text>
<polygon fill="none" stroke="black" points="105,-819 105,-840 212,-840 212,-819 105,-819"/>
<text text-anchor="start" x="115" y="-825.8" font-family="Times New Roman,serif" font-size="14.00">link.ifExitLink()</text>
</g>
<!-- required0&#45;&gt;entry0 -->
<g id="edge9" class="edge">
<title>required0&#45;&gt;entry0</title>
<path fill="none" stroke="black" d="M175.04,-806.75C176.29,-799.78 177.54,-792.81 178.76,-786"/>
<ellipse fill="none" stroke="black" cx="174.31" cy="-810.85" rx="4" ry="4"/>
</g>
<!-- provided0 -->
<g id="node11" class="node">
<title>provided0</title>
<polygon fill="none" stroke="black" points="246,-913 246,-934 323,-934 323,-913 246,-913"/>
<text text-anchor="start" x="249" y="-920.8" font-family="Times New Roman,serif" font-size="14.00"> </text>
<text text-anchor="start" x="253" y="-920.8" font-family="Times New Roman,serif" font-weight="bold" font-size="14.00"> Provided </text>
<text text-anchor="start" x="316" y="-920.8" font-family="Times New Roman,serif" font-size="14.00"> </text>
<polygon fill="none" stroke="black" points="246,-892 246,-913 323,-913 323,-892 246,-892"/>
<text text-anchor="start" x="253" y="-898.8" font-family="Times New Roman,serif" font-size="14.00">entryTree()</text>
<polygon fill="none" stroke="black" points="246,-871 246,-892 323,-892 323,-871 246,-871"/>
<text text-anchor="start" x="252.5" y="-877.8" font-family="Times New Roman,serif" font-size="14.00">ifExitTree()</text>
</g>
<!-- provided0&#45;&gt;entry0 -->
<g id="edge10" class="edge">
<title>provided0&#45;&gt;entry0</title>
<path fill="none" stroke="black" d="M262.7,-858.02C252.35,-836.63 239.62,-810.35 227.83,-786"/>
<polyline fill="none" stroke="black" points="267.13,-867.15 262.77,-858.15 "/>
<path fill="none" stroke="black" d="M269.45,-860.47C266.32,-854.47 257.77,-858.83 260.45,-864.83"/>
</g>
<!-- entry1 -->
<g id="node12" class="node">
<title>entry1</title>
<ellipse fill="black" stroke="black" cx="578" cy="-711" rx="18" ry="18"/>
</g>
<!-- print_node1 -->
<g id="node13" class="node">
<title>print_node1</title>
<ellipse fill="none" stroke="black" cx="463" cy="-560" rx="50.09" ry="18"/>
<text text-anchor="middle" x="463" y="-556.3" font-family="Times New Roman,serif" font-size="14.00">print_node</text>
</g>
<!-- entry1&#45;&gt;print_node1 -->
<g id="edge11" class="edge">
<title>entry1&#45;&gt;print_node1</title>
<path fill="none" stroke="black" d="M574.66,-693.29C571.01,-678.75 563.88,-657.89 551,-644 538.84,-630.88 528.91,-637.25 515,-626 501.12,-614.78 488.53,-599.26 479.22,-586.2"/>
<polygon fill="black" stroke="black" points="481.87,-583.88 473.32,-577.63 476.11,-587.85 481.87,-583.88"/>
<text text-anchor="middle" x="581.5" y="-614.8" font-family="Times New Roman,serif" font-size="14.00">entryNodeFlag/</text>
<text text-anchor="middle" x="581.5" y="-599.8" font-family="Times New Roman,serif" font-size="14.00">pushNodesStack(node)</text>
</g>
<!-- check_link1 -->
<g id="node14" class="node">
<title>check_link1</title>
<ellipse fill="none" stroke="black" cx="463" cy="-458" rx="50.09" ry="18"/>
<text text-anchor="middle" x="463" y="-454.3" font-family="Times New Roman,serif" font-size="14.00">check_link</text>
</g>
<!-- print_node1&#45;&gt;check_link1 -->
<g id="edge12" class="edge">
<title>print_node1&#45;&gt;check_link1</title>
<path fill="none" stroke="black" d="M463,-541.58C463,-526.38 463,-504.07 463,-486.46"/>
<polygon fill="black" stroke="black" points="466.5,-486.22 463,-476.22 459.5,-486.22 466.5,-486.22"/>
<text text-anchor="middle" x="496" y="-512.8" font-family="Times New Roman,serif" font-size="14.00">True/</text>
<text text-anchor="middle" x="496" y="-497.8" font-family="Times New Roman,serif" font-size="14.00">printNode()</text>
</g>
<!-- end_node1 -->
<g id="node15" class="node">
<title>end_node1</title>
<ellipse fill="none" stroke="black" cx="331" cy="-356" rx="46.59" ry="18"/>
<text text-anchor="middle" x="331" y="-352.3" font-family="Times New Roman,serif" font-size="14.00">end_node</text>
</g>
<!-- check_link1&#45;&gt;end_node1 -->
<g id="edge13" class="edge">
<title>check_link1&#45;&gt;end_node1</title>
<path fill="none" stroke="black" d="M415.84,-451.72C378.9,-446.5 331.83,-437.08 320,-422 311.44,-411.09 313.44,-395.96 317.93,-383.03"/>
<polygon fill="black" stroke="black" points="321.2,-384.27 321.71,-373.69 314.72,-381.65 321.2,-384.27"/>
<text text-anchor="middle" x="394" y="-410.8" font-family="Times New Roman,serif" font-size="14.00">sizeNodesStack()&gt;1/</text>
<text text-anchor="middle" x="394" y="-395.8" font-family="Times New Roman,serif" font-size="14.00">printLink(popLinkStack())</text>
</g>
<!-- exit1 -->
<g id="node16" class="node">
<title>exit1</title>
<ellipse fill="black" stroke="black" cx="398" cy="-250" rx="18" ry="18"/>
<ellipse fill="none" stroke="black" cx="398" cy="-250" rx="22" ry="22"/>
</g>
<!-- check_link1&#45;&gt;exit1 -->
<g id="edge15" class="edge">
<title>check_link1&#45;&gt;exit1</title>
<path fill="none" stroke="black" d="M469.07,-439.91C479.29,-407.95 496.21,-338.02 468,-290 459.53,-275.58 443.57,-266.1 429.03,-260.1"/>
<polygon fill="black" stroke="black" points="429.89,-256.69 419.29,-256.49 427.45,-263.25 429.89,-256.69"/>
<text text-anchor="middle" x="539" y="-359.8" font-family="Times New Roman,serif" font-size="14.00">else/</text>
<text text-anchor="middle" x="539" y="-344.8" font-family="Times New Roman,serif" font-size="14.00">exitNodeFlag:=True</text>
</g>
<!-- end_node1&#45;&gt;exit1 -->
<g id="edge14" class="edge">
<title>end_node1&#45;&gt;exit1</title>
<path fill="none" stroke="black" d="M335.24,-337.97C339.18,-324.23 345.97,-304.82 356,-290 360.7,-283.05 366.87,-276.44 373.02,-270.71"/>
<polygon fill="black" stroke="black" points="375.5,-273.19 380.7,-263.95 370.88,-267.93 375.5,-273.19"/>
<text text-anchor="middle" x="412" y="-308.8" font-family="Times New Roman,serif" font-size="14.00">True/</text>
<text text-anchor="middle" x="412" y="-293.8" font-family="Times New Roman,serif" font-size="14.00">exitNodeFlag:=True</text>
</g>
<!-- inner1 -->
<g id="node17" class="node">
<title>inner1</title>
<polygon fill="none" stroke="black" points="449,-721 449,-742 534,-742 534,-721 449,-721"/>
<text text-anchor="start" x="467" y="-728.8" font-family="Times New Roman,serif" font-size="14.00"> </text>
<text text-anchor="start" x="471" y="-728.8" font-family="Times New Roman,serif" font-weight="bold" font-size="14.00"> Inner </text>
<text text-anchor="start" x="512" y="-728.8" font-family="Times New Roman,serif" font-size="14.00"> </text>
<polygon fill="none" stroke="black" points="449,-700 449,-721 534,-721 534,-700 449,-700"/>
<text text-anchor="start" x="458.5" y="-706.8" font-family="Times New Roman,serif" font-size="14.00">printNode()</text>
<polygon fill="none" stroke="black" points="449,-679 449,-700 534,-700 534,-679 449,-679"/>
<text text-anchor="start" x="452" y="-685.8" font-family="Times New Roman,serif" font-size="14.00">printLink(link)</text>
</g>
<!-- info1 -->
<g id="node18" class="node">
<title>info1</title>
<polygon fill="none" stroke="black" points="284,-732 284,-753 414,-753 414,-732 284,-732"/>
<text text-anchor="start" x="325" y="-739.8" font-family="Times New Roman,serif" font-size="14.00"> </text>
<text text-anchor="start" x="329" y="-739.8" font-family="Times New Roman,serif" font-weight="bold" font-size="14.00"> Node </text>
<text text-anchor="start" x="369" y="-739.8" font-family="Times New Roman,serif" font-size="14.00"> </text>
<polygon fill="none" stroke="black" points="284,-711 284,-732 414,-732 414,-711 284,-711"/>
<text text-anchor="start" x="287" y="-717.8" font-family="Times New Roman,serif" font-size="14.00">entryNodeFlag:=False</text>
<polygon fill="none" stroke="black" points="284,-690 284,-711 414,-711 414,-690 284,-690"/>
<text text-anchor="start" x="291.5" y="-696.8" font-family="Times New Roman,serif" font-size="14.00">exitNodeFlag:=False</text>
<polygon fill="none" stroke="black" points="284,-669 284,-690 414,-690 414,-669 284,-669"/>
<text text-anchor="start" x="323" y="-675.8" font-family="Times New Roman,serif" font-size="14.00">node:=&quot;&quot;</text>
</g>
<!-- required1 -->
<g id="node19" class="node">
<title>required1</title>
<polygon fill="none" stroke="black" points="421,-924 421,-945 539,-945 539,-924 421,-924"/>
<text text-anchor="start" x="444" y="-931.8" font-family="Times New Roman,serif" font-size="14.00"> </text>
<text text-anchor="start" x="448" y="-931.8" font-family="Times New Roman,serif" font-weight="bold" font-size="14.00"> Required </text>
<text text-anchor="start" x="512" y="-931.8" font-family="Times New Roman,serif" font-size="14.00"> </text>
<polygon fill="none" stroke="black" points="421,-903 421,-924 539,-924 539,-903 421,-903"/>
<text text-anchor="start" x="436" y="-909.8" font-family="Times New Roman,serif" font-size="14.00">popLinkStack()</text>
<polygon fill="none" stroke="black" points="421,-882 421,-903 539,-903 539,-882 421,-882"/>
<text text-anchor="start" x="424" y="-888.8" font-family="Times New Roman,serif" font-size="14.00">pushNodesStack(x)</text>
<polygon fill="none" stroke="black" points="421,-861 421,-882 539,-882 539,-861 421,-861"/>
<text text-anchor="start" x="433.5" y="-867.8" font-family="Times New Roman,serif" font-size="14.00">sizeNodeStack()</text>
</g>
<!-- required1&#45;&gt;entry1 -->
<g id="edge16" class="edge">
<title>required1&#45;&gt;entry1</title>
<path fill="none" stroke="black" d="M514.81,-850.11C527.14,-830.5 540.54,-807.69 551,-786 554.22,-779.32 557.29,-772.15 560.13,-765"/>
<ellipse fill="none" stroke="black" cx="512.65" cy="-853.52" rx="4" ry="4"/>
</g>
<!-- provided1 -->
<g id="node20" class="node">
<title>provided1</title>
<polygon fill="none" stroke="black" points="574,-913 574,-934 651,-934 651,-913 574,-913"/>
<text text-anchor="start" x="577" y="-920.8" font-family="Times New Roman,serif" font-size="14.00"> </text>
<text text-anchor="start" x="581" y="-920.8" font-family="Times New Roman,serif" font-weight="bold" font-size="14.00"> Provided </text>
<text text-anchor="start" x="644" y="-920.8" font-family="Times New Roman,serif" font-size="14.00"> </text>
<polygon fill="none" stroke="black" points="574,-892 574,-913 651,-913 651,-892 574,-892"/>
<text text-anchor="start" x="578.5" y="-898.8" font-family="Times New Roman,serif" font-size="14.00">entryNode()</text>
<polygon fill="none" stroke="black" points="574,-871 574,-892 651,-892 651,-871 574,-871"/>
<text text-anchor="start" x="577.5" y="-877.8" font-family="Times New Roman,serif" font-size="14.00">ifExitNode()</text>
</g>
<!-- provided1&#45;&gt;entry1 -->
<g id="edge17" class="edge">
<title>provided1&#45;&gt;entry1</title>
<path fill="none" stroke="black" d="M603.97,-857.13C599.03,-829.52 592.67,-793.99 587.48,-765"/>
<polyline fill="none" stroke="black" points="605.76,-867.15 604,-857.31 "/>
<path fill="none" stroke="black" d="M609.8,-861.35C608.38,-854.79 599.03,-856.55 599.96,-863.11"/>
</g>
<!-- entry2 -->
<g id="node21" class="node">
<title>entry2</title>
<ellipse fill="black" stroke="black" cx="836" cy="-711" rx="18" ry="18"/>
</g>
<!-- get_tree2 -->
<g id="node22" class="node">
<title>get_tree2</title>
<ellipse fill="none" stroke="black" cx="742" cy="-560" rx="39.79" ry="18"/>
<text text-anchor="middle" x="742" y="-556.3" font-family="Times New Roman,serif" font-size="14.00">get_tree</text>
</g>
<!-- entry2&#45;&gt;get_tree2 -->
<g id="edge18" class="edge">
<title>entry2&#45;&gt;get_tree2</title>
<path fill="none" stroke="black" d="M830.81,-693.65C826.09,-679.9 818.45,-659.99 809,-644 796.24,-622.41 778.24,-600.44 764.11,-584.53"/>
<polygon fill="black" stroke="black" points="766.42,-581.87 757.12,-576.8 761.22,-586.57 766.42,-581.87"/>
<text text-anchor="middle" x="852" y="-614.8" font-family="Times New Roman,serif" font-size="14.00">entryLinkFlag/</text>
<text text-anchor="middle" x="852" y="-599.8" font-family="Times New Roman,serif" font-size="14.00">pushLinkStack(link)</text>
</g>
<!-- start_tree2 -->
<g id="node23" class="node">
<title>start_tree2</title>
<ellipse fill="none" stroke="black" cx="742" cy="-458" rx="44.39" ry="18"/>
<text text-anchor="middle" x="742" y="-454.3" font-family="Times New Roman,serif" font-size="14.00">start_tree</text>
</g>
<!-- get_tree2&#45;&gt;start_tree2 -->
<g id="edge19" class="edge">
<title>get_tree2&#45;&gt;start_tree2</title>
<path fill="none" stroke="black" d="M742,-541.58C742,-526.38 742,-504.07 742,-486.46"/>
<polygon fill="black" stroke="black" points="745.5,-486.22 742,-476.22 738.5,-486.22 745.5,-486.22"/>
<text text-anchor="middle" x="796.5" y="-512.8" font-family="Times New Roman,serif" font-size="14.00">True/</text>
<text text-anchor="middle" x="796.5" y="-497.8" font-family="Times New Roman,serif" font-size="14.00">tree:=nextTree(link)</text>
</g>
<!-- end_tree2 -->
<g id="node24" class="node">
<title>end_tree2</title>
<ellipse fill="none" stroke="black" cx="742" cy="-356" rx="42.49" ry="18"/>
<text text-anchor="middle" x="742" y="-352.3" font-family="Times New Roman,serif" font-size="14.00">end_tree</text>
</g>
<!-- start_tree2&#45;&gt;end_tree2 -->
<g id="edge20" class="edge">
<title>start_tree2&#45;&gt;end_tree2</title>
<path fill="none" stroke="black" d="M742,-439.58C742,-424.38 742,-402.07 742,-384.46"/>
<polygon fill="black" stroke="black" points="745.5,-384.22 742,-374.22 738.5,-384.22 745.5,-384.22"/>
<text text-anchor="middle" x="785.5" y="-410.8" font-family="Times New Roman,serif" font-size="14.00">True/</text>
<text text-anchor="middle" x="785.5" y="-395.8" font-family="Times New Roman,serif" font-size="14.00">tree.entryTree()</text>
</g>
<!-- exit2 -->
<g id="node25" class="node">
<title>exit2</title>
<ellipse fill="black" stroke="black" cx="742" cy="-250" rx="18" ry="18"/>
<ellipse fill="none" stroke="black" cx="742" cy="-250" rx="22" ry="22"/>
</g>
<!-- end_tree2&#45;&gt;exit2 -->
<g id="edge21" class="edge">
<title>end_tree2&#45;&gt;exit2</title>
<path fill="none" stroke="black" d="M742,-337.83C742,-322.78 742,-300.53 742,-282.32"/>
<polygon fill="black" stroke="black" points="745.5,-282.16 742,-272.16 738.5,-282.16 745.5,-282.16"/>
<text text-anchor="middle" x="795" y="-308.8" font-family="Times New Roman,serif" font-size="14.00">tree.ifExitTree()/</text>
<text text-anchor="middle" x="795" y="-293.8" font-family="Times New Roman,serif" font-size="14.00">exitLinkFlag:=True</text>
</g>
<!-- info2 -->
<g id="node26" class="node">
<title>info2</title>
<polygon fill="none" stroke="black" points="668,-742 668,-763 792,-763 792,-742 668,-742"/>
<text text-anchor="start" x="707.5" y="-749.8" font-family="Times New Roman,serif" font-size="14.00"> </text>
<text text-anchor="start" x="711.5" y="-749.8" font-family="Times New Roman,serif" font-weight="bold" font-size="14.00"> Link </text>
<text text-anchor="start" x="748.5" y="-749.8" font-family="Times New Roman,serif" font-size="14.00"> </text>
<polygon fill="none" stroke="black" points="668,-721 668,-742 792,-742 792,-721 668,-721"/>
<text text-anchor="start" x="671" y="-727.8" font-family="Times New Roman,serif" font-size="14.00">entryLinkFlag:=False</text>
<polygon fill="none" stroke="black" points="668,-700 668,-721 792,-721 792,-700 668,-700"/>
<text text-anchor="start" x="675.5" y="-706.8" font-family="Times New Roman,serif" font-size="14.00">exitLinkFlag:=False</text>
<polygon fill="none" stroke="black" points="668,-679 668,-700 792,-700 792,-679 668,-679"/>
<text text-anchor="start" x="708.5" y="-685.8" font-family="Times New Roman,serif" font-size="14.00">link:=&quot;&quot;</text>
<polygon fill="none" stroke="black" points="668,-658 668,-679 792,-679 792,-658 668,-658"/>
<text text-anchor="start" x="708" y="-664.8" font-family="Times New Roman,serif" font-size="14.00">tree:=&quot;&quot;</text>
</g>
<!-- required2 -->
<g id="node27" class="node">
<title>required2</title>
<polygon fill="none" stroke="black" points="685,-934 685,-955 803,-955 803,-934 685,-934"/>
<text text-anchor="start" x="708" y="-941.8" font-family="Times New Roman,serif" font-size="14.00"> </text>
<text text-anchor="start" x="712" y="-941.8" font-family="Times New Roman,serif" font-weight="bold" font-size="14.00"> Required </text>
<text text-anchor="start" x="776" y="-941.8" font-family="Times New Roman,serif" font-size="14.00"> </text>
<polygon fill="none" stroke="black" points="685,-913 685,-934 803,-934 803,-913 685,-913"/>
<text text-anchor="start" x="711.5" y="-919.8" font-family="Times New Roman,serif" font-size="14.00">nextTree(x)</text>
<polygon fill="none" stroke="black" points="685,-892 685,-913 803,-913 803,-892 685,-892"/>
<text text-anchor="start" x="688" y="-898.8" font-family="Times New Roman,serif" font-size="14.00">pushLinkStack(link)</text>
<polygon fill="none" stroke="black" points="685,-871 685,-892 803,-892 803,-871 685,-871"/>
<text text-anchor="start" x="700.5" y="-877.8" font-family="Times New Roman,serif" font-size="14.00">tree.entryTree()</text>
<polygon fill="none" stroke="black" points="685,-850 685,-871 803,-871 803,-850 685,-850"/>
<text text-anchor="start" x="700" y="-856.8" font-family="Times New Roman,serif" font-size="14.00">tree.ifExitTree()</text>
</g>
<!-- required2&#45;&gt;entry2 -->
<g id="edge22" class="edge">
<title>required2&#45;&gt;entry2</title>
<path fill="none" stroke="black" d="M781.64,-839.14C791.13,-822.17 800.91,-803.62 809,-786 810.56,-782.6 812.1,-779.07 813.6,-775.5"/>
<ellipse fill="none" stroke="black" cx="779.57" cy="-842.82" rx="4" ry="4"/>
</g>
<!-- provided2 -->
<g id="node28" class="node">
<title>provided2</title>
<polygon fill="none" stroke="black" points="838,-913 838,-934 915,-934 915,-913 838,-913"/>
<text text-anchor="start" x="841" y="-920.8" font-family="Times New Roman,serif" font-size="14.00"> </text>
<text text-anchor="start" x="845" y="-920.8" font-family="Times New Roman,serif" font-weight="bold" font-size="14.00"> Provided </text>
<text text-anchor="start" x="908" y="-920.8" font-family="Times New Roman,serif" font-size="14.00"> </text>
<polygon fill="none" stroke="black" points="838,-892 838,-913 915,-913 915,-892 838,-892"/>
<text text-anchor="start" x="845.5" y="-898.8" font-family="Times New Roman,serif" font-size="14.00">entryLink()</text>
<polygon fill="none" stroke="black" points="838,-871 838,-892 915,-892 915,-871 838,-871"/>
<text text-anchor="start" x="844.5" y="-877.8" font-family="Times New Roman,serif" font-size="14.00">ifExitLink()</text>
</g>
<!-- provided2&#45;&gt;entry2 -->
<g id="edge23" class="edge">
<title>provided2&#45;&gt;entry2</title>
<path fill="none" stroke="black" d="M866.55,-857.13C861.43,-832.77 855,-802.25 849.37,-775.5"/>
<polyline fill="none" stroke="black" points="868.66,-867.15 866.6,-857.37 "/>
<path fill="none" stroke="black" d="M872.53,-861.23C870.91,-854.7 861.61,-856.76 862.74,-863.29"/>
</g>
</g>
</svg>
